<svg width="480" height="194" viewBox="0 0 480 194" fill="none" xmlns="http://www.w3.org/2000/svg">
<mask id="path-1-outside-1_77_7" maskUnits="userSpaceOnUse" x="161" y="35" width="140" height="125" fill="black">
<rect fill="white" x="161" y="35" width="140" height="125"/>
<path d="M213.316 79.6289C211.596 79.4814 209.974 79.4077 208.45 79.4077C199.947 79.4077 195.695 82.0866 195.695 87.4443C195.695 88.4766 195.842 89.5825 196.137 90.7622C196.137 94.3504 199.013 98.6514 204.764 103.665C202.453 112.169 201.298 116.764 201.298 117.453C202.871 122.024 205.747 124.31 209.925 124.31C210.957 124.31 217.839 120.869 230.569 113.987C240.449 120.869 247.331 124.31 251.214 124.31C255.785 122.835 258.071 120.254 258.071 116.568V115.683L253.794 101.969C256.35 99.5116 258.636 95.2106 260.651 89.0664C260.651 83.3646 255.49 79.9238 245.168 78.7441C239.564 68.9134 234.33 63.998 229.463 63.998C225.04 63.998 219.657 69.2083 213.316 79.6289ZM231.233 39.2983C249.321 39.2983 264.756 44.9756 277.536 56.3301C290.365 67.6846 296.779 81.3984 296.779 97.4717C296.779 113.545 290.365 127.259 277.536 138.613C264.756 149.968 249.321 155.645 231.233 155.645C213.095 155.645 197.636 149.968 184.856 138.613C172.076 127.259 165.687 113.545 165.687 97.4717C165.687 81.3984 172.076 67.6846 184.856 56.3301C197.636 44.9756 213.095 39.2983 231.233 39.2983Z"/>
</mask>
<path d="M213.316 79.6289C211.596 79.4814 209.974 79.4077 208.45 79.4077C199.947 79.4077 195.695 82.0866 195.695 87.4443C195.695 88.4766 195.842 89.5825 196.137 90.7622C196.137 94.3504 199.013 98.6514 204.764 103.665C202.453 112.169 201.298 116.764 201.298 117.453C202.871 122.024 205.747 124.31 209.925 124.31C210.957 124.31 217.839 120.869 230.569 113.987C240.449 120.869 247.331 124.31 251.214 124.31C255.785 122.835 258.071 120.254 258.071 116.568V115.683L253.794 101.969C256.35 99.5116 258.636 95.2106 260.651 89.0664C260.651 83.3646 255.49 79.9238 245.168 78.7441C239.564 68.9134 234.33 63.998 229.463 63.998C225.04 63.998 219.657 69.2083 213.316 79.6289ZM231.233 39.2983C249.321 39.2983 264.756 44.9756 277.536 56.3301C290.365 67.6846 296.779 81.3984 296.779 97.4717C296.779 113.545 290.365 127.259 277.536 138.613C264.756 149.968 249.321 155.645 231.233 155.645C213.095 155.645 197.636 149.968 184.856 138.613C172.076 127.259 165.687 113.545 165.687 97.4717C165.687 81.3984 172.076 67.6846 184.856 56.3301C197.636 44.9756 213.095 39.2983 231.233 39.2983Z" fill="#F5F0CD"/>
<path d="M213.316 79.6289L212.975 83.6143L215.445 83.826L216.734 81.7082L213.316 79.6289ZM196.137 90.7622H200.137V90.2698L200.018 89.7921L196.137 90.7622ZM204.764 103.665L208.624 104.714L209.281 102.296L207.392 100.65L204.764 103.665ZM201.298 117.453H197.298V118.122L197.516 118.754L201.298 117.453ZM230.569 113.987L232.856 110.705L230.834 109.297L228.667 110.468L230.569 113.987ZM251.214 124.31V128.31H251.843L252.442 128.116L251.214 124.31ZM258.071 115.683H262.071V115.074L261.889 114.492L258.071 115.683ZM253.794 101.969L251.022 99.0859L249.24 100.8L249.976 103.16L253.794 101.969ZM260.651 89.0664L264.452 90.3131L264.651 89.7057V89.0664H260.651ZM245.168 78.7441L241.693 80.725L242.698 82.4879L244.714 82.7183L245.168 78.7441ZM277.536 56.3301L274.879 59.3204L274.885 59.3254L277.536 56.3301ZM277.536 138.613L274.885 135.618L274.879 135.623L277.536 138.613ZM213.658 75.6435C211.839 75.4876 210.102 75.4077 208.45 75.4077V83.4077C209.846 83.4077 211.353 83.4753 212.975 83.6143L213.658 75.6435ZM208.45 75.4077C203.908 75.4077 199.819 76.0999 196.751 78.0326C193.373 80.1609 191.695 83.5008 191.695 87.4443H199.695C199.695 86.0301 200.142 85.3517 201.016 84.8011C202.2 84.0549 204.489 83.4077 208.45 83.4077V75.4077ZM191.695 87.4443C191.695 88.8555 191.896 90.29 192.257 91.7323L200.018 89.7921C199.789 88.8751 199.695 88.0977 199.695 87.4443H191.695ZM192.137 90.7622C192.137 93.6258 193.276 96.3708 194.969 98.9023C196.672 101.449 199.107 104.04 202.135 106.68L207.392 100.65C204.67 98.2763 202.792 96.2097 201.619 94.4559C200.436 92.6864 200.137 91.4868 200.137 90.7622H192.137ZM200.904 102.616C199.746 106.876 198.872 110.179 198.285 112.515C197.993 113.679 197.765 114.63 197.607 115.35C197.529 115.707 197.461 116.039 197.411 116.328C197.376 116.53 197.298 116.984 197.298 117.453H205.298C205.298 117.749 205.257 117.909 205.294 117.695C205.316 117.567 205.356 117.361 205.423 117.058C205.554 116.457 205.759 115.598 206.044 114.465C206.612 112.204 207.471 108.958 208.624 104.714L200.904 102.616ZM197.516 118.754C198.474 121.537 199.95 123.981 202.146 125.727C204.387 127.508 207.063 128.31 209.925 128.31V120.31C208.609 120.31 207.758 119.968 207.124 119.464C206.444 118.924 205.696 117.939 205.081 116.151L197.516 118.754ZM209.925 128.31C210.807 128.31 211.614 128.025 211.89 127.93C212.342 127.774 212.852 127.567 213.391 127.333C214.477 126.86 215.906 126.178 217.649 125.307C221.147 123.557 226.095 120.953 232.471 117.506L228.667 110.468C222.313 113.903 217.454 116.46 214.071 118.151C212.374 119 211.093 119.608 210.201 119.996C209.75 120.192 209.454 120.308 209.282 120.367C208.934 120.487 209.301 120.31 209.925 120.31V128.31ZM228.283 117.27C233.304 120.767 237.67 123.466 241.352 125.307C244.906 127.084 248.297 128.31 251.214 128.31V120.31C250.248 120.31 248.257 119.815 244.929 118.151C241.729 116.551 237.715 114.09 232.856 110.705L228.283 117.27ZM252.442 128.116C255.153 127.242 257.582 125.917 259.351 123.92C261.189 121.845 262.071 119.315 262.071 116.568H254.071C254.071 117.508 253.81 118.111 253.362 118.616C252.845 119.2 251.846 119.903 249.986 120.503L252.442 128.116ZM262.071 116.568V115.683H254.071V116.568H262.071ZM261.889 114.492L257.613 100.778L249.976 103.16L254.252 116.874L261.889 114.492ZM256.567 104.853C259.839 101.706 262.375 96.6453 264.452 90.3131L256.851 87.8198C254.897 93.7759 252.861 97.3173 251.022 99.0859L256.567 104.853ZM264.651 89.0664C264.651 84.7447 262.577 81.2664 258.999 78.8813C255.647 76.6466 251.041 75.3893 245.622 74.77L244.714 82.7183C249.617 83.2787 252.753 84.3316 254.562 85.5377C256.145 86.5933 256.651 87.6863 256.651 89.0664H264.651ZM248.643 76.7633C245.744 71.6764 242.803 67.6097 239.777 64.7686C236.766 61.9409 233.307 59.998 229.463 59.998V67.998C230.486 67.998 232.078 68.5129 234.301 70.6006C236.51 72.6748 238.989 75.9812 241.693 80.725L248.643 76.7633ZM229.463 59.998C225.693 59.998 222.28 62.1724 219.327 65.0318C216.287 67.9746 213.151 72.206 209.899 77.5496L216.734 81.7082C219.823 76.6312 222.549 73.0472 224.891 70.7797C227.319 68.4289 228.81 67.998 229.463 67.998V59.998ZM231.233 43.2983C248.404 43.2983 262.876 48.6564 274.879 59.3203L280.192 53.3398C266.635 41.2948 250.239 35.2983 231.233 35.2983V43.2983ZM274.885 59.3254C286.92 69.9772 292.779 82.6266 292.779 97.4717H300.779C300.779 80.1702 293.81 65.3919 280.187 53.3347L274.885 59.3254ZM292.779 97.4717C292.779 112.317 286.92 124.966 274.885 135.618L280.187 141.609C293.81 129.551 300.779 114.773 300.779 97.4717H292.779ZM274.879 135.623C262.876 146.287 248.404 151.645 231.233 151.645V159.645C250.239 159.645 266.635 153.649 280.192 141.604L274.879 135.623ZM231.233 151.645C214.009 151.645 199.514 146.285 187.513 135.623L182.2 141.604C195.759 153.65 212.181 159.645 231.233 159.645V151.645ZM187.513 135.623C175.526 124.973 169.687 112.322 169.687 97.4717H161.687C161.687 114.767 168.627 129.545 182.2 141.604L187.513 135.623ZM169.687 97.4717C169.687 82.621 175.526 69.9703 187.513 59.3203L182.2 53.3398C168.627 65.3988 161.687 80.1759 161.687 97.4717H169.687ZM187.513 59.3203C199.514 48.6583 214.009 43.2983 231.233 43.2983V35.2983C212.181 35.2983 195.759 41.2929 182.2 53.3398L187.513 59.3203Z" fill="black" mask="url(#path-1-outside-1_77_7)"/>
<mask id="path-3-outside-2_77_7" maskUnits="userSpaceOnUse" x="291.604" y="14.3334" width="154.517" height="165.552" fill="black">
<rect fill="white" x="291.604" y="14.3334" width="154.517" height="165.552"/>
<path d="M425.365 111.076C421.094 128.653 411.934 142.311 397.883 152.049C383.821 161.835 368.981 164.831 353.362 161.036C337.743 157.242 325.931 147.771 317.926 132.624C309.909 117.525 308.036 101.186 312.306 83.6092C316.588 65.9842 325.755 52.3026 339.805 42.5644C353.856 32.8262 368.691 29.8544 384.309 33.6489C399.928 37.4434 411.746 46.8902 419.763 61.9895C427.779 77.0887 429.646 93.4509 425.365 111.076ZM391.724 102.448C393.406 95.522 392.618 89.0835 389.36 83.1324C386.149 77.1928 381.439 73.4688 375.23 71.9603C368.972 70.4402 363.031 71.5765 357.405 75.3693C351.827 79.1737 348.197 84.5388 346.515 91.4646C344.832 98.3904 345.596 104.823 348.807 110.763C352.065 116.714 356.823 120.449 363.08 121.97C369.29 123.478 375.183 122.33 380.761 118.526C386.387 114.733 390.041 109.374 391.724 102.448Z"/>
</mask>
<path d="M425.365 111.076C421.094 128.653 411.934 142.311 397.883 152.049C383.821 161.835 368.981 164.831 353.362 161.036C337.743 157.242 325.931 147.771 317.926 132.624C309.909 117.525 308.036 101.186 312.306 83.6092C316.588 65.9842 325.755 52.3026 339.805 42.5644C353.856 32.8262 368.691 29.8544 384.309 33.6489C399.928 37.4434 411.746 46.8902 419.763 61.9895C427.779 77.0887 429.646 93.4509 425.365 111.076ZM391.724 102.448C393.406 95.522 392.618 89.0835 389.36 83.1324C386.149 77.1928 381.439 73.4688 375.23 71.9603C368.972 70.4402 363.031 71.5765 357.405 75.3693C351.827 79.1737 348.197 84.5388 346.515 91.4646C344.832 98.3904 345.596 104.823 348.807 110.763C352.065 116.714 356.823 120.449 363.08 121.97C369.29 123.478 375.183 122.33 380.761 118.526C386.387 114.733 390.041 109.374 391.724 102.448Z" fill="#F5F0CD"/>
<path d="M397.883 152.049L395.605 148.761L395.598 148.766L397.883 152.049ZM317.926 132.624L321.462 130.755L321.459 130.748L317.926 132.624ZM389.36 83.1324L385.841 85.0345L385.846 85.044L385.851 85.0534L389.36 83.1324ZM357.405 75.3693L355.169 72.0526L355.16 72.0587L355.152 72.0647L357.405 75.3693ZM348.807 110.763L345.288 112.665L345.293 112.674L345.298 112.684L348.807 110.763ZM380.761 118.526L378.525 115.209L378.516 115.215L378.507 115.221L380.761 118.526ZM421.478 110.132C417.424 126.818 408.801 139.616 395.605 148.761L400.162 155.337C415.067 145.006 424.765 130.489 429.252 112.02L421.478 110.132ZM395.598 148.766C382.406 157.946 368.731 160.654 354.306 157.149L352.417 164.923C369.23 169.008 385.236 165.724 400.168 155.332L395.598 148.766ZM354.306 157.149C339.88 153.645 328.972 144.965 321.462 130.755L314.389 134.493C322.89 150.577 335.605 160.839 352.417 164.923L354.306 157.149ZM321.459 130.748C313.93 116.567 312.14 101.239 316.193 84.5535L308.42 82.6649C303.933 101.134 305.889 118.482 314.393 134.5L321.459 130.748ZM316.193 84.5535C320.259 67.8169 328.89 54.9963 342.084 45.852L337.527 39.2768C322.619 49.6089 312.917 64.1515 308.42 82.6649L316.193 84.5535ZM342.084 45.852C355.263 36.718 368.934 34.0299 383.365 37.5358L385.254 29.7619C368.447 25.6788 352.449 28.9344 337.527 39.2768L342.084 45.852ZM383.365 37.5358C397.796 41.0417 408.711 49.7028 416.23 63.8652L423.296 60.1138C414.782 44.0777 402.061 33.8451 385.254 29.7619L383.365 37.5358ZM416.23 63.8652C423.757 78.0436 425.544 93.3949 421.478 110.132L429.252 112.02C433.749 93.5068 431.801 76.1338 423.296 60.1138L416.23 63.8652ZM395.61 103.392C397.515 95.551 396.631 88.0843 392.868 81.2113L385.851 85.0534C388.605 90.0827 389.297 95.4929 387.837 101.503L395.61 103.392ZM392.878 81.2302C389.164 74.3582 383.552 69.8658 376.174 68.0733L374.285 75.8472C379.326 77.0718 383.134 80.0274 385.841 85.0345L392.878 81.2302ZM376.174 68.0733C368.759 66.272 361.671 67.6691 355.169 72.0526L359.641 78.6859C364.391 75.4839 369.186 74.6083 374.285 75.8472L376.174 68.0733ZM355.152 72.0647C348.708 76.4598 344.53 82.6913 342.628 90.5203L350.402 92.4089C351.865 86.3863 354.947 81.8876 359.659 78.6738L355.152 72.0647ZM342.628 90.5203C340.726 98.3493 341.579 105.803 345.288 112.665L352.326 108.86C349.613 103.843 348.938 98.4316 350.402 92.4089L342.628 90.5203ZM345.298 112.684C349.064 119.562 354.721 124.055 362.136 125.856L364.025 118.083C358.925 116.844 355.066 113.866 352.315 108.842L345.298 112.684ZM362.136 125.856C369.514 127.649 376.561 126.232 383.015 121.83L378.507 115.221C373.805 118.428 369.065 119.307 364.025 118.083L362.136 125.856ZM382.997 121.842C389.494 117.462 393.706 111.233 395.61 103.392L387.837 101.503C386.376 107.514 383.279 112.004 378.525 115.209L382.997 121.842Z" fill="black" mask="url(#path-3-outside-2_77_7)"/>
<mask id="path-5-outside-3_77_7" maskUnits="userSpaceOnUse" x="0" y="47" width="163" height="134" fill="black">
<rect fill="white" y="47" width="163" height="134"/>
<path d="M115.798 51.4092C127.349 51.4092 140.228 78.075 154.433 131.407C156.94 138.829 158.193 145.17 158.193 150.429C158.193 153.919 157.677 156.942 156.645 159.498C153.892 165.986 149.149 169.23 142.415 169.23C132.879 169.23 126.833 164.02 124.277 153.6C121.721 143.13 116.585 126.27 108.868 103.021C97.6115 121.011 87.3138 130.006 77.9746 130.006H77.6797C68.193 129.809 59.6649 122.535 52.0952 108.182L41.7729 146.89C38.0864 166.404 30.9346 176.161 20.3174 176.161C14.8122 176.161 10.4867 173.728 7.34082 168.862C5.57129 166.257 4.68652 163.062 4.68652 159.277C4.68652 156.131 5.30094 152.567 6.52979 148.586C12.8706 117.423 19.4818 90.7812 26.3633 68.6621C30.738 58.3398 37.5949 53.1787 46.9341 53.1787C55.9292 53.1787 66.5464 62.9111 78.7856 82.376C80.2603 82.376 84.0451 76.9445 90.1401 66.0815C95.6945 56.2017 103.264 51.2617 112.849 51.2617C113.832 51.2617 114.815 51.3109 115.798 51.4092Z"/>
</mask>
<path d="M115.798 51.4092C127.349 51.4092 140.228 78.075 154.433 131.407C156.94 138.829 158.193 145.17 158.193 150.429C158.193 153.919 157.677 156.942 156.645 159.498C153.892 165.986 149.149 169.23 142.415 169.23C132.879 169.23 126.833 164.02 124.277 153.6C121.721 143.13 116.585 126.27 108.868 103.021C97.6115 121.011 87.3138 130.006 77.9746 130.006H77.6797C68.193 129.809 59.6649 122.535 52.0952 108.182L41.7729 146.89C38.0864 166.404 30.9346 176.161 20.3174 176.161C14.8122 176.161 10.4867 173.728 7.34082 168.862C5.57129 166.257 4.68652 163.062 4.68652 159.277C4.68652 156.131 5.30094 152.567 6.52979 148.586C12.8706 117.423 19.4818 90.7812 26.3633 68.6621C30.738 58.3398 37.5949 53.1787 46.9341 53.1787C55.9292 53.1787 66.5464 62.9111 78.7856 82.376C80.2603 82.376 84.0451 76.9445 90.1401 66.0815C95.6945 56.2017 103.264 51.2617 112.849 51.2617C113.832 51.2617 114.815 51.3109 115.798 51.4092Z" fill="#F5F0CD"/>
<path d="M115.798 51.4092L115.4 55.3893L115.599 55.4092H115.798V51.4092ZM154.433 131.407L150.568 132.436L150.602 132.563L150.643 132.687L154.433 131.407ZM156.645 159.498L160.327 161.06L160.341 161.028L160.354 160.996L156.645 159.498ZM124.277 153.6L120.391 154.548L120.393 154.552L124.277 153.6ZM108.868 103.021L112.664 101.76L109.986 93.692L105.477 100.899L108.868 103.021ZM77.6797 130.006L77.5968 134.005L77.6382 134.006H77.6797V130.006ZM52.0952 108.182L55.6333 106.316L50.8643 97.2732L48.2303 107.151L52.0952 108.182ZM41.7729 146.89L37.908 145.859L37.8699 146.002L37.8425 146.148L41.7729 146.89ZM7.34082 168.862L10.7 166.69L10.6753 166.652L10.6497 166.614L7.34082 168.862ZM6.52979 148.586L10.3519 149.766L10.4101 149.577L10.4495 149.383L6.52979 148.586ZM26.3633 68.6621L22.6804 67.1013L22.6029 67.2842L22.5439 67.4738L26.3633 68.6621ZM78.7856 82.376L75.3994 84.5052L76.5758 86.376H78.7856V82.376ZM90.1401 66.0815L86.6534 64.1213L86.6517 64.1242L90.1401 66.0815ZM115.798 55.4092C117.064 55.4092 119.043 56.1445 121.761 59.1111C124.438 62.0329 127.375 66.6394 130.518 73.1481C136.791 86.1358 143.485 105.844 150.568 132.436L158.298 130.377C151.176 103.638 144.328 83.3472 137.722 69.669C134.427 62.8448 131.09 57.4516 127.66 53.707C124.27 50.0071 120.308 47.4092 115.798 47.4092V55.4092ZM150.643 132.687C153.072 139.878 154.193 145.762 154.193 150.429H162.193C162.193 144.577 160.808 137.78 158.223 130.127L150.643 132.687ZM154.193 150.429C154.193 153.537 153.732 156.028 152.936 158L160.354 160.996C161.622 157.856 162.193 154.301 162.193 150.429H154.193ZM152.963 157.936C151.817 160.636 150.376 162.394 148.765 163.496C147.167 164.589 145.118 165.23 142.415 165.23V173.23C146.446 173.23 150.136 172.25 153.281 170.099C156.414 167.957 158.72 164.848 160.327 161.06L152.963 157.936ZM142.415 165.23C138.41 165.23 135.501 164.155 133.34 162.293C131.132 160.39 129.309 157.323 128.162 152.647L120.393 154.552C121.802 160.297 124.28 165.046 128.117 168.353C132.002 171.701 136.884 173.23 142.415 173.23V165.23ZM128.163 152.651C125.566 142.01 120.384 125.017 112.664 101.76L105.071 104.281C112.786 127.523 117.877 144.249 120.391 154.548L128.163 152.651ZM105.477 100.899C99.9554 109.723 94.8083 116.109 90.0708 120.247C85.3199 124.397 81.3127 126.006 77.9746 126.006V134.006C83.9757 134.006 89.787 131.117 95.3337 126.272C100.894 121.415 106.524 114.308 112.259 105.142L105.477 100.899ZM77.9746 126.006H77.6797V134.006H77.9746V126.006ZM77.7626 126.007C70.5509 125.857 63.0225 120.326 55.6333 106.316L48.5571 110.048C56.3073 124.743 65.8351 133.761 77.5968 134.005L77.7626 126.007ZM48.2303 107.151L37.908 145.859L45.6379 147.921L55.9602 109.212L48.2303 107.151ZM37.8425 146.148C36.0474 155.649 33.4849 162.295 30.418 166.479C27.4751 170.494 24.1605 172.161 20.3174 172.161V180.161C27.0914 180.161 32.6614 176.95 36.8703 171.208C40.9553 165.635 43.8119 157.645 45.7034 147.633L37.8425 146.148ZM20.3174 172.161C16.2531 172.161 13.1554 170.488 10.7 166.69L3.98163 171.033C7.81789 176.968 13.3712 180.161 20.3174 180.161V172.161ZM10.6497 166.614C9.41479 164.796 8.68652 162.425 8.68652 159.277H0.686523C0.686523 163.699 1.72779 167.717 4.03195 171.109L10.6497 166.614ZM8.68652 159.277C8.68652 156.637 9.20515 153.481 10.3519 149.766L2.70769 147.406C1.39673 151.654 0.686523 155.626 0.686523 159.277H8.68652ZM10.4495 149.383C16.7726 118.307 23.3528 91.8038 30.1827 69.8504L22.5439 67.4738C15.6108 89.7587 8.96864 116.538 2.6101 147.788L10.4495 149.383ZM30.0462 70.223C32.0408 65.5164 34.473 62.2923 37.1925 60.2454C39.8655 58.2335 43.0512 57.1787 46.9341 57.1787V49.1787C41.4777 49.1787 36.5654 50.7045 32.3815 53.8537C28.244 56.9679 25.0604 61.4855 22.6804 67.1013L30.0462 70.223ZM46.9341 57.1787C49.9776 57.1787 53.9482 58.8505 58.9404 63.4266C63.8772 67.952 69.3713 74.9183 75.3994 84.5052L82.1719 80.2468C75.9607 70.3688 70.0266 62.7365 64.3462 57.5294C58.7212 52.3731 52.8857 49.1787 46.9341 49.1787V57.1787ZM78.7856 86.376C80.1213 86.376 81.1359 85.8002 81.6542 85.4572C82.2443 85.0668 82.7632 84.5895 83.1983 84.1401C84.0756 83.2342 85.0197 82.0133 86.012 80.5892C88.0171 77.7118 90.5624 73.5035 93.6285 68.0388L86.6517 64.1242C83.6228 69.5225 81.2282 73.4615 79.4484 76.0155C78.5484 77.3071 77.8888 78.1231 77.4512 78.575C77.2289 78.8046 77.1626 78.8365 77.2397 78.7855C77.2449 78.7821 77.8186 78.376 78.7856 78.376V86.376ZM93.6269 68.0418C98.627 59.1477 104.999 55.2617 112.849 55.2617V47.2617C101.529 47.2617 92.762 53.2556 86.6534 64.1213L93.6269 68.0418ZM112.849 55.2617C113.699 55.2617 114.549 55.3042 115.4 55.3893L116.196 47.429C115.082 47.3176 113.966 47.2617 112.849 47.2617V55.2617Z" fill="black" mask="url(#path-5-outside-3_77_7)"/>
</svg>
