<?xml version="1.0" encoding="UTF-8"?>
<svg id="Layer_1" data-name="Layer 1" xmlns="http://www.w3.org/2000/svg" xmlns:xlink="http://www.w3.org/1999/xlink" viewBox="0 0 3000 3000">
  <defs>
    <linearGradient id="Orange_Yellow" data-name="Orange, Yellow" x1="727.88" y1="2750.55" x2="1207.17" y2="2750.55" gradientTransform="translate(2891.06 3961.71) rotate(-166.72)" gradientUnits="userSpaceOnUse">
      <stop offset="0" stop-color="#fff33b"/>
      <stop offset=".04" stop-color="#fee62d"/>
      <stop offset=".12" stop-color="#fdd51b"/>
      <stop offset=".2" stop-color="#fdca0f"/>
      <stop offset=".28" stop-color="#fdc70c"/>
      <stop offset=".67" stop-color="#f3903f"/>
      <stop offset=".89" stop-color="#ed683c"/>
      <stop offset="1" stop-color="#e93e3a"/>
    </linearGradient>
  </defs>
  <g>
    <path d="M487.96,2223.21l-191.79-268,74.33-53.2c25.18-18.02,49.62-31.26,73.34-39.73,23.71-8.46,46.36-11.91,67.94-10.34,21.57,1.57,41.91,8.19,60.99,19.85,19.08,11.67,36.48,28.48,52.2,50.44,15.72,21.97,26.02,43.87,30.9,65.68,4.88,21.82,4.58,43.2-.89,64.13-5.48,20.93-16,41.32-31.56,61.17-15.56,19.85-35.94,38.79-61.12,56.8l-74.33,53.2ZM505.13,2162.31l34.15-24.44c39.11-27.99,62.27-58.02,69.47-90.12,7.21-32.09-.78-64.34-23.98-96.76-23.19-32.41-51.1-50.31-83.7-53.71-32.61-3.4-68.47,8.9-107.57,36.88l-34.15,24.44,145.78,203.71ZM508.68,2145.19l-131.98-184.42,23.71-16.96c34.01-24.34,65.98-35.57,95.89-33.69,29.91,1.89,55.79,18.1,77.64,48.64,21.85,30.54,28.9,60.33,21.13,89.38-7.77,29.05-28.66,55.75-62.68,80.09l-23.71,16.96ZM518.91,2085.62c20.09-14.38,32.22-30.24,36.4-47.62,4.18-17.36-.73-35.83-14.73-55.38-13.99-19.55-29.84-30.08-47.53-31.6-17.69-1.51-36.58,4.92-56.67,19.29l82.52,115.32Z" fill="#ed1c24" opacity=".97" stroke="#231f20" stroke-miterlimit="10" stroke-width="16.84"/>
    <path d="M695.13,1900.59l-192.41-93.15,95.21-68.14,71.47,34.51-10.01-78.5,95.21-68.14,26.09,212.18,82.51,115.3-85.57,61.24-82.51-115.3ZM802.85,1949.25l-68.71-96.02-18.4-149.64-12.45,8.91,16.72,132.01-119.96-58.12-12.05,8.62,135.3,65.98,68.71,96.02,10.85-7.76Z" fill="#ed1c24" stroke="#231f20" stroke-miterlimit="10" stroke-width="16.84"/>
    <path d="M751.39,1629.48l70.3-50.31,147.81,50.35-73.89-103.25,83.96-60.09,191.77,267.96-70.71,50.6-147.12-50.23,73.6,102.85-83.96,60.09-191.77-267.96ZM967.96,1831.09l-132.83-185.6,265.4,90.73,10.45-7.47-145.77-203.68-10.45,7.47,132.83,185.6-265.4-90.73-10.45,7.48,145.77,203.68,10.45-7.48Z" fill="#ed1c24" stroke="#231f20" stroke-miterlimit="10" stroke-width="16.84"/>
    <path d="M1078,1395.75l64.28-46,293.41,195.22-84.37,60.38-26.09-17.78-81.15,58.08,8.41,30.43-84.37,60.38-90.13-340.7ZM1204.98,1661.47l-6.74-25.55,132.58-94.88,22.01,14.62,11.25-8.05-223.3-148.2-15.27,10.93,68.23,259.17,11.25-8.05ZM1140.04,1414.53l180.26,119.46-125.34,89.7-54.92-209.16ZM1260.47,1544.61l-51.72-34.07,15.56,59.94,36.16-25.88Z" fill="#ed1c24" stroke="#231f20" stroke-miterlimit="10" stroke-width="16.84"/>
    <path d="M1240.7,1279.31l70.71-50.6,143.5,52.82-4.1-152.58,70.71-50.6,191.77,267.96-85.57,61.24-69-96.42,2.86,119.45-112.54-40.96,69,96.42-85.57,61.24-191.77-267.96ZM1460.09,1478.91l-131.96-184.4,183.72,66.57-4.14-195.08,131.96,184.4,10.45-7.48-145.77-203.68-10.45,7.48,5,196.29-184.58-67.77-10.45,7.48,145.77,203.68,10.45-7.48Z" fill="#ed1c24" stroke="#231f20" stroke-miterlimit="10" stroke-width="16.84"/>
    <path d="M1540.4,1064.83l90.79-64.98,191.77,267.96-90.79,64.98-191.77-267.96ZM1759.79,1264.43l-145.77-203.68-10.45,7.47,145.77,203.68,10.45-7.47Z" fill="#ed1c24" stroke="#231f20" stroke-miterlimit="10" stroke-width="16.84"/>
    <path d="M1744.98,1024.74l-49.41,35.36-50.31-70.3,187.21-133.98,50.31,70.3-49.41,35.36,141.45,197.66-88.38,63.25-141.45-197.66ZM1912.85,1154.89l-138.87-194.04,57.45-41.11-6.9-9.64-125.34,89.7,6.9,9.64,57.45-41.11,138.87,194.04,10.45-7.48Z" fill="#ed1c24" stroke="#231f20" stroke-miterlimit="10" stroke-width="16.84"/>
    <path d="M1846.52,845.76l157.88-112.99,50.31,70.3-72.31,51.75,21.28,29.73,71.11-50.89,47.73,66.69-71.11,50.89,22.14,30.93,75.13-53.76,50.31,70.31-160.7,115-191.77-267.96ZM2146.25,987.85l-6.9-9.64-80.35,57.5-62.96-87.98,76.33-54.63-6.9-9.64-76.33,54.63-62.1-86.78,80.35-57.5-6.9-9.64-90.79,64.98,145.77,203.68,90.79-64.98Z" fill="#ed1c24" stroke="#231f20" stroke-miterlimit="10" stroke-width="16.84"/>
  </g>
  <g id="string">
    <path d="M2160.14,835.78c49.94-48.06,107.06-89.29,171.09-116.46,67.48-28.63,141.63-41.08,214.74-36.06,58.92,4.05,122.93,19.83,166.5,62.63,21.49,21.11,36.14,48.65,40.16,78.3s-3.08,60.31-17.9,87.23c-30.35,55.14-83.63,93.69-136.03,126.19-7.97,4.94-16.02,9.75-24.13,14.45-13.39,7.76-1.29,28.56,12.14,20.77,58.94-34.15,118.85-74.22,157.78-131.37,19.13-28.07,32.03-60.31,33.21-94.52,1.15-33.5-9-67.49-28.45-94.8-39.31-55.18-106.51-80.73-171.44-89.61-75.16-10.28-152.69-2.22-224.35,22.63-70.71,24.53-134.4,65.12-190.07,114.79-6.88,6.14-13.62,12.42-20.26,18.81-11.18,10.76,5.85,27.75,17.01,17.01h0Z" fill="#231f20"/>
  </g>
  <polygon id="spark" points="2534.18 878.35 2594.77 968.38 2678.17 898.93 2657.35 1005.44 2765.43 1015.3 2675.39 1075.9 2744.84 1159.29 2638.33 1138.47 2628.47 1246.55 2567.88 1156.52 2484.48 1225.97 2505.3 1119.46 2397.22 1109.6 2487.26 1049 2417.81 965.61 2524.32 986.43 2534.18 878.35" fill="none" stroke="url(#Orange_Yellow)" stroke-miterlimit="10" stroke-width="40.9"/>
</svg>