<?xml version="1.0" encoding="UTF-8"?>
<svg id="Layer_1" data-name="Layer 1" xmlns="http://www.w3.org/2000/svg" viewBox="0 0 3000 3000">
  <path d="M2251.08,1052.39c-143.56,0-272,64.77-357.69,166.67-83.45-127.3-227.38-211.38-390.96-211.38-138.77,0-263.4,60.51-348.96,156.58-83.18-76.45-194.15-123.13-316.02-123.13-258,0-467.14,209.15-467.14,467.14s209.15,467.14,467.14,467.14c138.77,0,263.4-60.51,348.96-156.58,83.18,76.45,194.15,123.13,316.02,123.13,143.56,0,272-64.77,357.69-166.67,83.45,127.3,227.38,211.38,390.96,211.38,258,0,467.14-209.15,467.14-467.14s-209.15-467.14-467.14-467.14Z"/>
  <path d="M2162.56,1000.94c-143.56,0-272,64.77-357.69,166.67-83.45-127.3-227.38-211.38-390.96-211.38-138.77,0-263.4,60.51-348.96,156.58-83.18-76.45-194.15-123.13-316.02-123.13-258,0-467.14,209.15-467.14,467.14s209.15,467.14,467.14,467.14c138.77,0,263.4-60.51,348.96-156.58,83.18,76.45,194.15,123.13,316.02,123.13,143.56,0,272-64.77,357.69-166.67,83.45,127.3,227.38,211.38,390.96,211.38,258,0,467.14-209.15,467.14-467.14s-209.15-467.14-467.14-467.14Z" fill="#fff"/>
  <g>
    <g>
      <circle cx="2296.9" cy="1377.27" r="17.73" stroke="#000" stroke-miterlimit="10" stroke-width="7.66"/>
      <polygon points="2296.9 1512.79 2276.05 1468.08 2255.2 1423.38 2296.9 1423.38 2338.6 1423.38 2317.75 1468.08 2296.9 1512.79" stroke="#000" stroke-miterlimit="10" stroke-width="7.66"/>
      <rect x="2260.74" y="1521.48" width="17.78" height="106.61" rx="7.21" ry="7.21" stroke="#000" stroke-miterlimit="10" stroke-width="7.66"/>
      <rect x="2314.63" y="1521.48" width="17.78" height="106.61" rx="7.21" ry="7.21" stroke="#000" stroke-miterlimit="10" stroke-width="7.66"/>
      <ellipse cx="2244.94" cy="1339.32" rx="12.14" ry="68.17" transform="translate(-176 353.14) rotate(-8.66)" stroke="#000" stroke-miterlimit="10" stroke-width="7.66"/>
      <ellipse cx="2350.08" cy="1339.32" rx="68.17" ry="12.14" transform="translate(586.22 3390.03) rotate(-78.98)" stroke="#000" stroke-miterlimit="10" stroke-width="7.66"/>
    </g>
    <circle cx="1413.91" cy="1400.43" r="40.89" stroke="#000" stroke-miterlimit="10" stroke-width="15.31"/>
    <rect x="1147.29" y="1215.89" width="533.24" height="41.36" rx="20.68" ry="20.68" fill="#fff" stroke="#000" stroke-miterlimit="10" stroke-width="10.21"/>
    <rect x="1097.55" y="1171.94" width="32.74" height="131.23" rx="16.37" ry="16.37" fill="#fff" stroke="#000" stroke-miterlimit="10" stroke-width="15.31"/>
    <rect x="1695.42" y="1171.94" width="32.74" height="131.23" rx="16.37" ry="16.37" fill="#fff" stroke="#000" stroke-miterlimit="10" stroke-width="15.31"/>
    <rect x="1064.81" y="1186.77" width="32.74" height="101.57" rx="16.37" ry="16.37" fill="#fff" stroke="#000" stroke-miterlimit="10" stroke-width="15.31"/>
    <rect x="1728.16" y="1186.77" width="32.74" height="101.57" rx="16.37" ry="16.37" fill="#fff" stroke="#000" stroke-miterlimit="10" stroke-width="15.31"/>
    <rect x="1130.29" y="1156.8" width="32.74" height="159.54" rx="16.37" ry="16.37" fill="#fff" stroke="#000" stroke-miterlimit="10" stroke-width="15.31"/>
    <rect x="1662.68" y="1157.79" width="32.74" height="159.54" rx="16.37" ry="16.37" fill="#fff" stroke="#000" stroke-miterlimit="10" stroke-width="15.31"/>
    <g>
      <rect x="749.84" y="1286.33" width="25.96" height="164.62" rx="12.98" ry="12.98" transform="translate(2131.46 605.81) rotate(90)" fill="#fff" stroke="#000" stroke-miterlimit="10" stroke-width="15.31"/>
      <rect x="749.84" y="1462.72" width="25.96" height="164.62" rx="12.98" ry="12.98" transform="translate(2307.85 782.21) rotate(90)" fill="#fff" stroke="#000" stroke-miterlimit="10" stroke-width="15.31"/>
      <rect x="748.92" y="1381.62" width="29.72" height="150.43" rx="14.86" ry="14.86" fill="#fff" stroke="#000" stroke-miterlimit="10" stroke-width="15.31"/>
      <rect x="706.2" y="1331.79" width="115.17" height="23.33" rx="11.66" ry="11.66" fill="#fff" stroke="#000" stroke-miterlimit="10" stroke-width="15.31"/>
      <rect x="706.2" y="1558.01" width="115.17" height="23.33" rx="11.66" ry="11.66" fill="#fff" stroke="#000" stroke-miterlimit="10" stroke-width="15.31"/>
    </g>
    <g>
      <path d="M606.88,1667.83c-36.4-20.27-64.51-49.17-84.31-86.73-19.81-37.54-29.72-81.2-29.72-130.96s9.9-93.52,29.72-131.3c19.8-37.77,48.03-66.92,84.66-87.42,36.63-20.49,79.13-30.75,127.5-30.75,39.15,0,75.67,6.68,109.53,20.04,33.86,13.37,59.78,31.79,77.75,55.29,4.15,4.61,6.22,10.14,6.22,16.59,0,7.38-3.23,13.13-9.67,17.28-4.15,2.76-8.76,4.15-13.82,4.15-4.15,0-8.29-1.04-12.44-3.11s-7.6-4.72-10.37-7.95c-14.29-17.97-34.1-32.13-59.43-42.5-25.34-10.37-54.59-15.55-87.77-15.55-38.7,0-72.34,8.29-100.9,24.88-28.57,16.59-50.45,40.32-65.65,71.18-15.2,30.87-22.81,67.27-22.81,109.19,0,63.58,16.81,113.45,50.45,149.62,33.62,36.17,79.93,54.25,138.91,54.25,30.86,0,58.28-4.95,82.24-14.86,23.95-9.9,42.73-23.72,56.32-41.46,13.58-17.73,20.39-37.89,20.39-60.47v-23.5c0-12.44-2.42-21.42-7.26-26.95-4.84-5.53-13.94-8.29-27.3-8.29h-105.04c-17.51,0-26.26-6.91-26.26-20.73,0-14.74,8.75-22.11,26.26-22.11h114.03c26.26,0,45.84,5.77,58.74,17.28,12.89,11.52,19.35,29.26,19.35,53.21v26.26c0,30.87-9.22,58.98-27.64,84.31-18.43,25.34-43.78,45.27-76.02,59.78-32.25,14.51-68.19,21.77-107.81,21.77-48.84,0-91.46-10.13-127.85-30.41Z" stroke="#231f20" stroke-miterlimit="10" stroke-width="25.52"/>
      <path d="M1609.62,1207.92c4.6,4.84,6.91,11.64,6.91,20.39v86.38c0,39.16-7.26,74.53-21.77,106.08-14.51,31.56-35.14,57.01-61.85,76.36-26.73,19.35-57.36,31.1-91.91,35.25v138.21c0,8.76-2.31,15.55-6.91,20.39-4.61,4.84-11.06,7.26-19.35,7.26-7.84,0-14.06-2.42-18.66-7.26-4.61-4.84-6.91-11.63-6.91-20.39v-138.21c-35.94-3.68-67.15-14.97-93.64-33.86-26.5-18.89-46.89-43.99-61.16-75.33-14.29-31.33-21.42-67.49-21.42-108.5v-86.38c0-8.75,2.3-15.55,6.91-20.39,4.6-4.84,10.82-7.26,18.66-7.26,8.29,0,14.74,2.42,19.35,7.26,4.6,4.84,6.91,11.64,6.91,20.39v88.46c0,54.37,13.24,96.75,39.74,127.16,26.49,30.41,63.23,45.61,110.23,45.61s83.16-15.31,109.88-45.96c26.71-30.63,40.08-72.91,40.08-126.81v-88.46c0-8.75,2.42-15.55,7.26-20.39,4.84-4.84,11.17-7.26,19-7.26s14.05,2.42,18.66,7.26Z" stroke="#231f20" stroke-miterlimit="10" stroke-width="25.52"/>
      <path d="M1886.74,1690.98c-4.61-4.84-6.91-11.63-6.91-20.39v-312.36c0-48.83,13.82-87.3,41.46-115.41,27.64-28.1,65.65-42.16,114.03-42.16,28.1,0,54.01,7.26,77.75,21.77,23.72,14.51,41.57,33.75,53.56,57.7,11.97-24.41,29.6-43.76,52.87-58.05,23.26-14.27,49.41-21.42,78.44-21.42,48.38,0,86.38,13.94,114.03,41.81,27.64,27.88,41.46,66.46,41.46,115.75v312.36c0,8.76-2.42,15.55-7.26,20.39-4.84,4.84-11.18,7.26-19,7.26-8.29,0-14.63-2.42-19-7.26-4.38-4.84-6.56-11.63-6.56-20.39v-312.36c0-36.39-8.19-64.27-24.53-83.62-16.36-19.35-43.19-29.02-80.51-29.02-32.72,0-58.29,10.02-76.71,30.06-18.43,20.04-27.64,47.58-27.64,82.58v312.36c0,8.76-2.31,15.55-6.91,20.39-4.61,4.84-10.83,7.26-18.66,7.26s-13.94-2.42-18.31-7.26c-4.38-4.84-6.57-11.63-6.57-20.39v-312.36c0-34.09-9.67-61.39-29.02-81.89-19.35-20.49-44.69-30.75-76.02-30.75-37.32,0-64.16,9.67-80.51,29.02-16.36,19.35-24.53,47.23-24.53,83.62v312.36c0,8.76-2.31,15.55-6.91,20.39-4.61,4.84-11.06,7.26-19.35,7.26-7.84,0-14.06-2.42-18.66-7.26Z" stroke="#231f20" stroke-miterlimit="10" stroke-width="25.52"/>
    </g>
  </g>
</svg>