<?xml version="1.0" encoding="UTF-8"?>
<svg id="Layer_1" data-name="Layer 1" xmlns="http://www.w3.org/2000/svg" viewBox="0 0 3000 3000">
  <path d="M277.13,2185.62c24.63-176.67,106.35-642.32,230.98-722.04,40.73-26.06,118.74-23.97,149.69-84.92,28.03-55.19,8.24-127.14-.34-158.31-25.23-91.73-68.56-102.44-68.73-169.39-.02-7.16.83-75.53,50.54-117.93,33.76-28.8,81.25-38.1,119.27-27.87,31.98,8.6,38.59,25.98,64.69,23.59,33.62-3.09,57.67-35.13,66.71-47.17,28.26-37.64,18.78-60.19,44.48-79.33,26.62-19.84,60.94-13.6,64.69-12.86,33.63,6.61,39.75,30.46,66.71,30.02,8.88-.14,14.04-2.83,50.54-27.87,61.12-41.94,67.31-48.59,84.91-51.46,6.44-1.05,38.63-6.31,62.67,12.87,13.93,11.11,13.48,21.13,32.35,36.45,10.45,8.48,23.67,19.22,40.43,19.3,22.87.1,39.95-19.69,52.56-34.31,24.64-28.56,18.13-42.01,38.41-55.75,10.42-7.07,25.14-9.71,54.58-15.01,13.26-2.39,23.86-4.24,38.41-4.29,13.95-.05,28.79-.1,46.5,6.43,5.89,2.17,25.06,9.48,42.45,27.87,15.82,16.73,15.21,26.8,26.28,30.02,11.28,3.27,22.31-4.16,38.41-15.01,22.6-15.23,20.57-21.77,36.39-30.02,22.57-11.77,45.07-8.05,52.56-6.43,6.96,1.51,19.72,5.26,32.35,15.01,7.43,5.74,15,15.61,29.86,35.12,13.88,18.24,15.96,22.31,23.3,26.36,11.65,6.43,23.34,5.51,29.51,4.94,18.69-1.72,22.29-10.27,46.6-19.77,8.6-3.36,24.31-9.34,45.05-9.88,9.3-.24,26.16-.5,45.05,8.24,5.07,2.35,14.88,6.88,24.85,16.47,9.88,9.51,10.55,14.97,20.19,21.42,9.77,6.54,19.49,7.89,23.3,8.24,14.87,1.35,18.52-5.55,35.73-8.24,10.57-1.65,19.99,0,38.83,3.3,5.66.99,19.58,3.62,38.83,9.88,15.96,5.19,17.83,7.11,48.78,19.68,23.89,9.7,23.98,9.05,46.19,18.23,11.03,4.56,25.25,10.6,41.89,18.23,21.53,9.87,32.46,14.92,40.82,20.51,9.39,6.28,17.36,13.68,33.3,28.48,17.94,16.66,21.81,22.32,24.71,28.48,5.03,10.72,5.89,20.34,6.45,27.34.95,11.87-.11,26.85-6.45,44.44-11.18,31.04-27.64,38.92-52.33,72.55-22.27,30.33-41.05,55.91-41.12,88.72-.07,32.19,17.93,37.55,14.18,64.66-5.15,37.19-40.97,41.11-41.96,70.8-1.02,30.28,35.15,58.82,64.65,69.05,23.65,8.2,44.04,4.99,51.54,3.93,63.75-8.98,124.58,6.92,217.72,31.27,74.94,19.59,117.73,31.39,158.76,72.16,17.06,16.95,48.84,49.44,56.7,101.03,9.29,61.01-20.65,110.93-24.95,117.87-30.78,49.72-68.14,49.76-77.11,93.81-5.24,25.74,2.62,49.76,6.8,62.54,10.88,33.24,26.33,41.32,40.82,67.35,19.32,34.69,18.82,68.71,18.14,115.46-.98,67.31-20.26,118.04-29.48,139.52-12.49,29.09-36.12,82.4-90.72,125.08-54.44,42.56-109.79,49.95-154.22,55.32-79.7,9.65-139.57-6.79-219.99-28.87-66.29-18.2-121.59-33.38-188.24-72.16-57.59-33.51-72.06-54.62-115.66-60.14-25.97-3.29-50.12.49-138.34,36.08-103.53,41.76-106.31,51.09-154.22,67.35-49.48,16.8-100.27,20.02-201.85,26.46-111.78,7.09-167.67,10.63-219.99,0-79.44-16.15-99.79-40.39-167.83-36.08-51.44,3.26-50.8,17.82-120.2,26.46-56.65,7.06-112.02,13.95-165.56-14.43-50.12-26.57-42.64-54.37-83.91-69.76-25.05-9.34-51.74-8.02-179.17,45.7-108.76,45.85-104.04,29.41-152.82,31.66-22.81,1.05-54.63-11.57-103.57-40.68,0,0-51.97-41.88-61.37-105.78Z" fill="#292a67"/>
  <path d="M137.66,2080.91c25.5-173.96,110.13-632.47,239.18-710.98,42.18-25.66,122.96-23.6,155.01-83.62,29.02-54.35,8.53-125.19-.35-155.88-26.13-90.32-71-100.87-71.17-166.79-.02-7.05.85-74.37,52.33-116.12,34.96-28.36,84.14-37.51,123.51-27.45,33.11,8.47,39.96,25.58,66.99,23.22,34.81-3.04,59.72-34.59,69.08-46.45,29.26-37.06,19.45-59.27,46.05-78.12,27.57-19.53,63.1-13.39,66.99-12.67,34.83,6.51,41.17,29.99,69.08,29.56,9.2-.14,14.54-2.79,52.33-27.45,63.29-41.3,69.7-47.84,87.92-50.67,6.67-1.04,40-6.21,64.89,12.67,14.42,10.94,13.96,20.8,33.49,35.89,10.82,8.35,24.51,18.93,41.87,19,23.68.1,41.37-19.39,54.43-33.78,25.52-28.12,18.78-41.36,39.77-54.89,10.8-6.96,26.04-9.56,56.52-14.78,13.73-2.35,24.71-4.17,39.77-4.22,14.45-.05,29.81-.1,48.15,6.33,6.1,2.14,25.95,9.34,43.96,27.45,16.38,16.47,15.75,26.39,27.21,29.56,11.68,3.22,23.1-4.1,39.77-14.78,23.4-14.99,21.3-21.43,37.68-29.56,23.37-11.59,46.67-7.93,54.43-6.33,7.21,1.48,20.42,5.18,33.49,14.78,7.69,5.65,15.54,15.37,30.92,34.58,14.38,17.96,16.52,21.97,24.13,25.96,12.07,6.33,24.17,5.43,30.56,4.87,19.36-1.69,23.08-10.11,48.25-19.47,8.91-3.31,25.17-9.2,46.65-9.73,9.63-.24,27.09-.49,46.65,8.11,5.25,2.31,15.41,6.78,25.74,16.22,10.23,9.36,10.93,14.74,20.91,21.09,10.12,6.44,20.18,7.77,24.13,8.11,15.4,1.33,19.17-5.46,36.99-8.11,10.95-1.63,20.7,0,40.21,3.24,5.86.98,20.28,3.57,40.21,9.73,16.52,5.11,18.46,7,50.51,19.38,24.73,9.56,24.83,8.92,47.83,17.95,11.42,4.49,26.14,10.44,43.38,17.95,22.29,9.72,33.62,14.69,42.27,20.19,9.72,6.18,17.97,13.47,34.48,28.05,18.58,16.41,22.59,21.98,25.59,28.05,5.21,10.55,6.09,20.03,6.67,26.93.98,11.69-.11,26.43-6.67,43.75-11.58,30.57-28.62,38.32-54.19,71.44-23.06,29.87-42.5,55.05-42.58,87.36-.07,31.69,18.57,36.98,14.68,63.67-5.33,36.62-42.42,40.48-43.45,69.72-1.05,29.82,36.39,57.92,66.94,67.99,24.49,8.07,45.6,4.91,53.37,3.87,66.02-8.84,129.01,6.82,225.45,30.79,77.6,19.29,121.91,30.91,164.39,71.06,17.66,16.69,50.58,48.68,58.71,99.48,9.62,60.08-21.38,109.23-25.83,116.06-31.87,48.96-70.56,49-79.85,92.37-5.43,25.34,2.71,49,7.05,61.58,11.26,32.73,27.26,40.69,42.27,66.32,20,34.15,19.49,67.66,18.79,113.69-1.01,66.28-20.98,116.23-30.53,137.38-12.93,28.64-37.4,81.14-93.94,123.17-56.38,41.9-113.69,49.18-159.69,54.48-82.53,9.5-144.52-6.68-227.8-28.42-68.64-17.92-125.91-32.87-194.92-71.06-59.63-32.99-74.62-53.78-119.77-59.21-26.89-3.24-51.9.49-143.26,35.53-107.2,41.12-110.08,50.31-159.69,66.32-51.24,16.54-103.83,19.71-209.01,26.05-115.75,6.98-173.62,10.47-227.8,0-82.26-15.9-103.33-39.77-173.78-35.53-53.26,3.21-52.61,17.54-124.47,26.05-58.66,6.95-115.99,13.74-171.44-14.21-51.9-26.17-44.15-53.54-86.89-68.69-25.94-9.2-53.58-7.89-185.53,45-112.62,45.15-107.73,28.96-158.25,31.18-23.62,1.04-56.57-11.4-107.25-40.06,0,0-53.82-41.24-63.55-104.16Z" fill="#fff" stroke="#292a67" stroke-miterlimit="10" stroke-width="39.66"/>
  <g>
    <path d="M1074.54,1935.28c1.98,15.32-1.02,29.63-9,42.94-7.98,13.31-18.63,24.96-31.94,34.95-13.31,9.99-28.13,18.14-44.42,24.46-16.31,6.32-31.95,10.31-46.92,11.97-14.98,1.66-28.13.99-39.44-2-11.32-2.99-18.3-9.15-20.96-18.47-3.33-7.31-6.84-16.8-10.49-28.45-3.66-11.64-9.15-29.1-16.46-52.4h-164.72c-10.66,0-18.47-4.33-23.47-13-4.99-8.66-7.65-19.49-7.98-32.49-.33-13,1.33-27,4.98-42.01,3.66-15,8.99-28.99,15.98-42,6.99-13,15.47-23.83,25.46-32.51,9.99-8.66,20.63-13,31.95-13h63.89c-14.65-45.92-27.29-86.68-37.94-122.29-10.66-35.61-18.3-61.05-22.95-76.37-3.33,9.32-9.65,26.3-18.97,50.92-9.32,24.63-19.81,52.57-31.45,83.85-11.65,31.28-23.96,64.08-36.93,98.4-12.98,34.32-25.29,66.5-36.94,96.49s-21.79,55.65-30.44,76.95c-8.65,21.3-14.31,34.61-16.97,39.93-5.33,11.32-14.33,19.46-26.97,24.46s-26.45,7.16-41.42,6.5c-14.98-.68-30.46-3.66-46.42-8.99-15.98-5.33-30.12-12.65-42.43-21.97-12.32-9.32-22.14-20.13-29.45-32.44-7.32-12.31-9.64-25.78-6.98-40.43,6.64-20.66,15.63-46.33,26.94-77,11.32-30.67,23.79-63.33,37.43-97.97,13.65-34.63,27.78-70.25,42.43-106.86,14.65-36.6,28.78-71.03,42.43-103.31,13.65-32.28,26.12-61.4,37.43-87.35s20.63-45.6,27.96-58.91c7.31-13.31,19.3-24.78,35.94-34.43,16.63-9.65,35.27-17.3,55.91-22.96,20.62-5.65,42.75-8.97,66.38-9.98,23.62-1,46.08.82,67.39,5.48,21.29,4.66,40.77,11.98,58.4,21.96,17.64,9.99,31.43,23.3,41.42,39.93,5.99,14.65,13.31,34.11,21.96,58.4,8.65,24.29,17.97,51.41,27.96,81.35,9.98,29.95,20.45,61.9,31.43,95.84,10.98,33.95,21.29,67.74,30.95,101.36,9.65,33.62,18.64,66.1,26.96,97.44,8.32,31.34,15.15,59.34,20.48,84ZM594.36,1432.13c11.97-9.31,25.62-16.3,40.92-20.96,15.31-4.66,29.79-8.32,43.43-10.98s25.45-5.33,35.44-7.99c9.99-2.65,15.64-6.64,16.98-11.97,1.98-8.65-3.18-13.31-15.49-13.98-12.31-.67-26.79,1.83-43.42,7.49-16.64,5.66-32.62,13.65-47.93,23.96-15.31,10.32-25.28,21.79-29.94,34.43Z" fill="#292968"/>
    <path d="M1705.11,1686.49c33.93,14.65,61.56,33.14,82.85,55.45,21.29,22.31,31.95,49.45,31.95,81.4,0,35.3-8.66,65.6-25.96,90.91-17.3,25.31-40.43,46.28-69.38,62.92-28.95,16.66-62.73,29.8-101.32,39.46-38.61,9.65-78.87,16.98-120.8,21.97s-84.35,8.16-127.27,9.49c-42.93,1.34-83.7,2-122.29,2-43.27,0-75.22-7.49-95.84-22.48-20.63-14.98-30.95-33.79-30.95-56.45,0-8.65-.17-25.64-.5-50.95s-.67-55.12-1-89.42-.5-71.43-.5-111.41v-115.4c0-36.96.17-70.76.5-101.4.33-30.64.84-54.29,1.51-70.95,2.65-15.32,7.98-28.14,15.96-38.47,7.98-10.32,17.97-18.47,29.95-24.47,11.97-6,25.45-10.16,40.43-12.49,14.97-2.33,30.44-3.5,46.42-3.5,91.18,0,171.37,1.84,240.59,5.5,69.2,3.67,126.94,12.5,173.2,26.48,46.25,13.99,81.19,34.64,104.82,61.96,23.62,27.32,35.44,64.96,35.44,112.93,0,15.33-3.33,29.66-9.99,42.99-6.66,13.32-15.14,25.48-25.45,36.47-10.32,10.99-21.96,20.5-34.94,28.49-12.98,7.99-25.46,14.31-37.43,18.97ZM1141.1,1416.71c10.65-7.98,22.95-13.65,36.93-16.97,13.98-3.32,27.29-6.15,39.93-8.48,12.64-2.33,22.8-4.83,30.46-7.49,7.65-2.65,10.14-6.98,7.48-12.98-1.34-2.66-6.99-4.16-16.97-4.49-9.99-.33-21.3,1.34-33.95,4.99s-25.13,9.15-37.43,16.46c-12.32,7.32-21.14,16.98-26.45,28.95ZM1349.34,1866.13c75.8-1.33,130.17-5.97,163.11-13.95,32.94-7.97,49.75-19.27,50.42-33.89.66-11.3-17.82-20.44-55.42-27.42-37.6-6.98-90-10.46-157.22-10.46v44.35c0,14.29-.31,28.09-.89,41.37ZM1533.81,1572.65c0-5.32-2.5-10.3-7.49-14.96-4.99-4.66-14.31-8.48-27.96-11.47-13.65-2.99-32.27-5.48-55.89-7.48-23.63-2-54.08-3-91.34-3v76.79c37.92-1.98,68.7-4.48,92.33-7.48,23.62-2.99,42.09-6.15,55.4-9.47,13.31-3.32,22.46-6.98,27.46-10.97,4.99-3.99,7.49-7.98,7.49-11.97Z" fill="#292968"/>
    <path d="M2390.81,1628.79c-56.58-27.95-101.33-48.58-134.27-61.89-32.95-13.31-56.41-21.79-70.39-25.45-13.98-3.66-19.46-3.17-16.46,1.49,2.99,4.66,12.14,10.98,27.46,18.96,40.6,19.31,81.02,40.27,121.28,62.9,40.27,22.63,80.03,48.26,119.3,76.86,40.6,29.3,66.38,63.08,77.36,101.33,10.98,38.27,9.82,75.2-3.49,110.81-13.31,35.61-37.61,67.05-72.89,94.34-35.27,27.29-79.21,44.41-131.78,51.41-52.57,6.98-112.47,1.16-179.69-17.47-67.22-18.64-139.09-55.91-215.63-111.81-19.97-21.29-32.27-41.76-36.93-61.39-4.66-19.63-3.99-37.43,2-53.41,5.99-15.98,16.13-29.95,30.44-41.94,14.3-11.97,30.44-20.62,48.41-25.95s36.93-6.99,56.9-4.99c19.97,2.01,38.27,8.33,54.91,18.96,7.31,4.66,17.3,10.66,29.94,17.97,12.64,7.32,26.62,15.32,41.94,23.97,15.31,8.65,30.78,17.15,46.42,25.46,15.64,8.32,30.44,15.47,44.42,21.46,13.98,6,26.12,10.32,36.44,12.98,10.31,2.66,17.47,2.33,21.46-1,5.99-4.66,3.66-12.14-6.99-22.46-10.66-10.31-26.79-22.28-48.41-35.93-21.63-13.65-47.26-28.28-76.88-43.92s-60.06-31.45-91.33-47.44c-56.58-28.6-94.85-60.89-114.81-96.83-19.98-35.94-25.29-71.04-15.98-105.32,9.32-34.27,31.11-65.21,65.39-92.84,34.27-27.62,77.36-47.42,129.28-59.39,51.9-11.97,110.81-13.65,176.69-4.99,65.88,8.65,135.1,32.28,207.65,70.88,19.97,10.66,32.61,24.3,37.94,40.94,5.33,16.63,5.66,33.93,1,51.9-4.66,17.97-13.48,35.45-26.45,52.42-12.98,16.97-27.29,31.28-42.93,42.93-15.64,11.65-31.78,19.46-48.41,23.45-16.64,3.99-30.96,1.66-42.93-6.99ZM1976.52,1485.05c23.29-18.64,45.25-33.28,65.88-43.93,20.63-10.65,38.44-19.13,53.41-25.45,14.97-6.32,26.62-10.98,34.94-13.98,8.32-2.99,12.15-5.82,11.5-8.48-2.01-6.66-10.99-7.98-26.97-3.99-15.98,3.99-33.44,10.98-52.4,20.96-18.97,9.99-36.94,21.79-53.91,35.44-16.97,13.65-27.78,26.8-32.44,39.44Z" fill="#292968"/>
  </g>
  <g>
    <path d="M783.53,1265.26s653.47-408.42,1356.87,0" fill="none"/>
    <path d="M758.35,980.46c1.66,3.33,4.97,9.82,9.95,19.48,4.98,9.66,10.75,21.08,17.32,34.25,6.57,13.18,13.71,27.35,21.43,42.5,7.72,15.16,15.09,29.94,22.1,44.33,7.01,14.4,13.4,27.51,19.14,39.34,5.74,11.84,10.14,20.82,13.2,26.96,2.29,7.17,2.12,14.04-.5,20.62-2.63,6.58-6.53,12.53-11.72,17.82-5.19,5.3-11.27,9.77-18.23,13.41-6.98,3.64-13.85,6.03-20.62,7.17-6.78,1.15-12.98,1.04-18.6-.31-5.63-1.34-9.84-4.51-12.65-9.51-3.19-5.75-7.66-14.23-13.4-25.43-5.74-11.19-12.15-23.73-19.23-37.61-7.08-13.88-14.45-28.5-22.1-43.85-7.65-15.35-14.93-29.94-21.82-43.75-6.89-13.82-13.04-26.16-18.47-37.04-5.42-10.87-9.47-19-12.15-24.37-2.93-8.44-3.28-16.34-1.03-23.69,2.24-7.35,6.02-13.7,11.34-19.07,5.31-5.36,11.64-9.64,19-12.83,7.35-3.19,14.74-5.03,22.16-5.54,7.42-.5,14.28.63,20.61,3.38,6.33,2.76,11.09,7.34,14.27,13.73ZM675.08,1017.19c1.28-5.75,3.46-10.67,6.54-14.76,3.07-4.08,5.98-7.54,8.74-10.35,2.75-2.81,4.93-5.17,6.53-7.09,1.6-1.91,1.76-3.51.48-4.79-.9-.51-2.62-.13-5.18,1.15-2.56,1.28-5.21,3.48-7.97,6.61-2.75,3.13-5.06,7.16-6.92,12.08-1.86,4.92-2.6,10.64-2.22,17.16Z" fill="#292968"/>
    <path d="M1205.08,835.73c.9,3.61,2.73,10.67,5.51,21.17,2.77,10.51,5.96,22.98,9.56,37.4,3.6,14.43,7.54,29.94,11.84,46.55,4.29,16.61,8.31,32.7,12.05,48.27,3.74,15.57,7.15,29.82,10.23,42.75,3.08,12.93,5.45,22.73,7.12,29.39.34,7.28-1.39,13.9-5.21,19.86-3.81,5.97-8.85,10.9-15.09,14.82-6.25,3.92-13.21,6.99-20.91,9.2-7.7,2.21-14.98,3.15-21.84,2.8-6.87-.34-12.9-1.79-18.1-4.32-5.2-2.53-8.63-6.53-10.29-12.02-1.59-5.2-3.5-12.24-5.71-21.12-2.22-8.87-4.78-19.14-7.69-30.79l-102.36,25.55-1.25.31c2.42,9.71,4.61,18.45,6.54,26.21,1.94,7.77,3.35,14.05,4.26,18.83.62,7.21-1.05,13.82-5,19.81-3.96,6-9.05,10.96-15.29,14.87-6.25,3.92-13.14,6.97-20.7,9.15-7.56,2.18-14.77,3.1-21.64,2.75-6.87-.34-12.9-1.79-18.1-4.32-5.2-2.53-8.63-6.53-10.29-12.02-1.87-6.31-4.39-15.55-7.58-27.72-3.18-12.17-6.68-25.88-10.49-41.14-3.81-15.25-7.79-31.21-11.95-47.85-4.16-16.64-8.05-32.54-11.69-47.69-3.63-15.15-6.92-28.62-9.87-40.41-2.94-11.79-5.14-20.6-6.6-26.42-1.04-8.87.27-16.64,3.91-23.3,3.64-6.66,8.64-12.02,14.98-16.12,6.34-4.08,13.45-6.89,21.33-8.42,7.87-1.52,15.41-1.71,22.62-.56,7.21,1.15,13.59,3.68,19.14,7.6,5.54,3.92,9.19,9.35,10.92,16.28.69,2.78,1.99,7.68,3.9,14.72,1.9,7.04,4.15,15.47,6.75,25.28,2.6,9.82,5.39,20.69,8.36,32.61,2.98,11.93,6.02,24.13,9.14,36.62,10.4-3.18,23.85-6.84,40.36-10.96,16.5-4.12,35.09-8.46,55.75-13.04,1.38-.35,2.56-.64,3.54-.88.97-.24,2.18-.39,3.64-.47-2.91-11.65-5.77-23.09-8.57-34.33-2.8-11.23-5.35-21.72-7.63-31.47-2.29-9.74-4.34-18.29-6.18-25.64-1.83-7.35-3.27-13.11-4.31-17.27-1.04-8.87.27-16.64,3.91-23.3,3.64-6.66,8.64-12.03,14.98-16.12,6.34-4.08,13.38-6.88,21.12-8.37,7.73-1.49,15.27-1.67,22.62-.56,7.35,1.11,13.79,3.63,19.34,7.55,5.54,3.92,9.19,9.35,10.92,16.28Z" fill="#292968"/>
    <path d="M1568.81,1030.52c1.08,6.55,0,12.73-3.24,18.56-3.24,5.83-7.64,10.98-13.21,15.46-5.58,4.48-11.81,8.19-18.72,11.14-6.91,2.95-13.57,4.89-19.97,5.82-6.41.93-12.06.83-16.96-.29-4.91-1.12-7.99-3.66-9.27-7.63-1.54-3.09-3.17-7.11-4.91-12.06-1.74-4.94-4.35-12.37-7.83-22.27l-70.72,2.37c-4.57.15-7.99-1.59-10.26-5.23-2.27-3.64-3.57-8.25-3.9-13.81-.33-5.57.18-11.59,1.54-18.07,1.35-6.48,3.44-12.56,6.25-18.23,2.81-5.67,6.3-10.44,10.46-14.3,4.16-3.85,8.67-5.87,13.53-6.03l27.43-.92c-6.95-19.51-12.97-36.82-18.05-51.96-5.09-15.13-8.74-25.95-10.96-32.46-1.3,4.05-3.77,11.43-7.41,22.13-3.65,10.71-7.75,22.86-12.29,36.46-4.55,13.6-9.36,27.85-14.44,42.75-5.08,14.91-9.91,28.87-14.47,41.89-4.57,13.03-8.56,24.18-11.97,33.44-3.41,9.27-5.65,15.07-6.71,17.39-2.13,4.94-5.87,8.56-11.22,10.89-5.36,2.33-11.26,3.45-17.69,3.38-6.44-.07-13.13-1.13-20.06-3.19-6.93-2.05-13.11-4.99-18.53-8.82-5.42-3.82-9.79-8.32-13.11-13.51-3.32-5.18-4.51-10.93-3.58-17.26,2.56-8.95,6.04-20.08,10.47-33.39,4.42-13.3,9.3-27.49,14.67-42.54,5.35-15.05,10.92-30.54,16.68-46.47,5.76-15.92,11.33-30.91,16.73-44.97,5.39-14.05,10.33-26.74,14.82-38.04,4.48-11.31,8.2-19.87,11.15-25.69,2.95-5.82,7.93-10.92,14.93-15.3,7-4.38,14.89-7.93,23.67-10.66,8.77-2.72,18.23-4.47,28.36-5.24,10.12-.77,19.8-.3,29.01,1.39,9.21,1.7,17.67,4.56,25.39,8.59,7.71,4.03,13.84,9.55,18.36,16.55,2.78,6.2,6.2,14.46,10.27,24.76,4.06,10.31,8.46,21.81,13.17,34.53,4.72,12.71,9.68,26.28,14.88,40.69,5.21,14.42,10.12,28.77,14.75,43.06,4.62,14.29,8.95,28.09,12.97,41.4,4.02,13.31,7.35,25.22,9.99,35.71Z" fill="#292968"/>
    <path d="M1837.63,822.06c10.54,4.62,17.75,10.57,21.64,17.87,3.88,7.3,5.68,14.91,5.4,22.82-.28,7.92-2.13,15.73-5.56,23.43s-7.2,14.4-11.32,20.1c-8.5,14.84-18.04,31.1-28.6,48.78-10.56,17.69-20.95,34.75-31.16,51.19-10.22,16.44-19.6,31.35-28.15,44.73-8.56,13.38-15.22,23.15-19.99,29.33-4.03,5.14-9.9,9.18-17.62,12.12-7.72,2.94-16.16,4.9-25.29,5.87-9.14.97-18.75.85-28.84-.36-10.09-1.21-19.49-3.54-28.19-6.99-8.71-3.44-16.53-7.91-23.45-13.38s-11.79-12.06-14.59-19.76c-1.53-6.62-3.29-15.38-5.27-26.28-1.99-10.9-4.06-23.04-6.22-36.43-2.16-13.39-4.4-27.66-6.71-42.81-2.31-15.15-4.36-30.11-6.15-44.89-1.79-14.77-3.37-29.08-4.73-42.92-1.37-13.84-2.33-26.16-2.88-36.97.26-6.91,2.53-12.84,6.81-17.79,4.28-4.95,9.59-9.08,15.93-12.39,6.33-3.31,13.18-5.81,20.56-7.51,7.37-1.69,14.29-2.37,20.76-2.05,6.46.33,11.91,1.58,16.33,3.75,4.42,2.17,7.04,5.21,7.86,9.1.76,4.18,1.95,11.55,3.57,22.09,1.61,10.55,3.38,22.79,5.31,36.71,1.92,13.93,3.95,28.6,6.08,44.01,2.12,15.41,4.24,29.95,6.36,43.62,1.92,13.06,3.56,23.03,4.9,29.91,1.33,6.88,3.19,10.59,5.57,11.12,2.37.54,5.48-2.07,9.31-7.82,3.83-5.74,9.37-14.83,16.61-27.27,6.58-11.96,13.9-24.89,21.97-38.78,8.06-13.89,15.71-27.05,22.95-39.49,7.24-12.43,13.56-23.21,18.96-32.32s8.98-14.68,10.76-16.71c4.49-6.22,11.23-9.39,20.24-9.52,9-.12,17.95,1.84,26.85,5.9Z" fill="#292968"/>
    <path d="M2099.13,1129.55c7.75,4.44,13.23,10.1,16.42,16.98s4.67,14.15,4.46,21.79c-.22,7.64-2.01,15.17-5.38,22.6-3.37,7.42-7.6,13.73-12.67,18.9-5.08,5.18-10.77,8.86-17.08,11.04-6.32,2.19-12.78,1.92-19.38-.81-3.17-1.31-9.21-3.72-18.12-7.25-8.91-3.52-19.38-7.76-31.4-12.73-12.03-4.96-25.11-10.36-39.25-16.2-14.14-5.84-28.02-11.56-41.62-17.18-13.62-5.62-26.43-10.91-38.45-15.87-12.03-4.96-22-9.08-29.93-12.35-11.89-4.91-20.51-11.01-25.84-18.32-5.34-7.31-5.61-16.77-.81-28.4l87.85-212.88c3.52-6.28,7.74-10.88,12.65-13.8,4.92-2.92,10.23-4.75,15.95-5.48,5.71-.73,11.57-.48,17.55.75,5.98,1.24,11.88,3.05,17.7,5.45,5.55,2.29,13.21,5.45,22.99,9.49,9.77,4.03,20.64,8.45,32.59,13.22,11.95,4.78,24.52,9.89,37.74,15.34,13.21,5.45,25.87,10.76,37.98,15.9,12.1,5.15,23.17,9.79,33.22,13.94,10.04,4.14,18.04,7.61,24.02,10.38,6.85,4.38,11.61,9.89,14.27,16.56,2.66,6.66,3.78,13.7,3.35,21.1-.43,7.4-2.21,14.71-5.34,21.92-3.14,7.22-6.94,13.45-11.43,18.71-4.49,5.26-9.43,9.18-14.82,11.75-5.4,2.57-10.79,2.9-16.18.98-6.72-2.46-16.12-6.11-28.19-10.94-12.08-4.83-25.39-10.25-39.92-16.24-14.54-6-29.51-12.25-44.91-18.77-15.41-6.51-29.85-12.55-43.33-18.11l-4.42,10.7c3.43,1.42,8.19,3.38,14.27,5.89,6.08,2.51,12.49,5.15,19.23,7.93s13.34,5.51,19.82,8.18c6.47,2.67,11.82,4.88,16.05,6.63,8.83,3.34,15.36,8.12,19.59,14.35,4.23,6.23,6.59,12.69,7.08,19.39.49,6.69-.64,13.35-3.36,19.95-2.73,6.61-6.52,12.23-11.37,16.88-4.86,4.65-10.45,7.91-16.79,9.77-6.34,1.87-12.95,1.38-19.81-1.45l-76.11-31.41-4.58,11.1c13.48,5.56,27.61,11.4,42.42,17.5,14.8,6.11,28.91,12.01,42.34,17.7,13.42,5.7,25.55,10.78,36.39,15.25,10.83,4.47,19.03,7.85,24.58,10.14Z" fill="#292968"/>
  </g>
</svg>