<?xml version="1.0" encoding="UTF-8"?>
<svg id="Layer_1" data-name="Layer 1" xmlns="http://www.w3.org/2000/svg" viewBox="0 0 3000 3000">
  <g>
    <path d="M2367.89,1845.86s135.95,13.13,192.25,116.71" stroke="#000" stroke-linecap="round" stroke-linejoin="round" stroke-width="288.5"/>
    <path d="M734.63,1831.4s-135.95,13.13-192.25,116.71" stroke="#000" stroke-linecap="round" stroke-linejoin="round" stroke-width="288.5"/>
    <rect x="469.59" y="481" width="2160.15" height="1868.08" rx="934.04" ry="934.04"/>
    <rect x="1021.58" y="2026.49" width="380.81" height="572.49" rx="95.28" ry="95.28"/>
    <rect x="1691.12" y="2026.49" width="380.81" height="572.49" rx="95.28" ry="95.28"/>
  </g>
  <g>
    <path d="M2268.57,1765.88s135.95,13.13,192.25,116.71" fill="#59ba47" stroke="#59ba47" stroke-linecap="round" stroke-linejoin="round" stroke-width="288.5"/>
    <path d="M635.31,1751.42s-135.95,13.13-192.25,116.71" fill="#59ba47" stroke="#59ba47" stroke-linecap="round" stroke-linejoin="round" stroke-width="288.5"/>
    <rect x="370.26" y="401.02" width="2160.15" height="1868.08" rx="934.04" ry="934.04" fill="#59ba47"/>
    <rect x="922.26" y="1946.51" width="380.81" height="572.49" rx="95.28" ry="95.28" fill="#59ba47"/>
    <rect x="1591.8" y="1946.51" width="380.81" height="572.49" rx="95.28" ry="95.28" fill="#59ba47"/>
  </g>
  <g>
    <path d="M2268.57,1032.42c0,388.88-12.9,959.07-814.28,959.07s-814.28-570.19-814.28-959.07c205.12-261.8,814.28-353.32,814.28-353.32,0,0,657.81-28.04,814.28,353.32Z" fill="#927142" stroke="#000" stroke-miterlimit="10" stroke-width="39.34"/>
    <ellipse cx="1450.34" cy="1032.42" rx="814.28" ry="353.32" fill="#9dd08c" stroke="#000" stroke-miterlimit="10" stroke-width="41.96"/>
    <ellipse cx="1450.34" cy="1017.6" rx="236" ry="115.12" fill="#dde790"/>
    <circle cx="1122.25" cy="1690.17" r="83.38"/>
    <circle cx="1778.43" cy="1690.17" r="83.38"/>
    <path d="M1336.19,1749.94s93.87,133.49,235.32-3.48" fill="none" stroke="#000" stroke-linecap="round" stroke-miterlimit="10" stroke-width="23.6"/>
    <path d="M1465.37,855.68c-17.77,1.2-38.56-55.35-37.82-74.87.74-19.52,24.01-36.22,38.21-37.18,14.2-.96,41.12,19.86,40.25,39.19s-22.87,71.67-40.64,72.86Z"/>
    <path d="M1718.12,885.74c-14.85-9.83,2.92-67.4,15.35-82.47,12.43-15.07,41.06-14.23,52.93-6.37,11.87,7.86,20.64,40.74,8.22,55.57-12.42,14.83-61.66,43.1-76.51,33.27Z"/>
    <path d="M1694.83,1136.4c11.87-13.28,66.27,12.6,79.39,27.08s8.16,42.69-1.32,53.3c-9.49,10.61-43.28,14.55-56.17.13-12.89-14.43-33.76-67.23-21.9-80.5Z"/>
    <path d="M1187.77,1145.67c-11.87-13.28-66.27,12.6-79.39,27.08-13.12,14.47-8.16,42.69,1.32,53.3,9.49,10.61,43.28,14.55,56.17.13,12.89-14.43,33.76-67.23,21.9-80.5Z"/>
    <path d="M1210.69,883.72c13.28-11.87-12.6-66.27-27.08-79.39-14.47-13.12-42.69-8.16-53.3,1.32-10.61,9.49-14.55,43.28-.13,56.17,14.43,12.89,67.23,33.76,80.5,21.9Z"/>
    <path d="M1455.69,1194.68c17.77-1.2,38.56,55.35,37.82,74.87-.74,19.52-24.01,36.22-38.21,37.18-14.2.96-41.12-19.86-40.25-39.19s22.87-71.67,40.64-72.86Z"/>
    <path d="M1017,994.57c1.2,17.77-55.35,38.56-74.87,37.82-19.52-.74-36.22-24.01-37.18-38.21s19.86-41.12,39.19-40.25c19.33.87,71.67,22.87,72.86,40.64Z"/>
    <path d="M1879.15,1016.2c-1.2-17.77,55.35-38.56,74.87-37.82,19.52.74,36.22,24.01,37.18,38.21s-19.86,41.12-39.19,40.25-71.67-22.87-72.86-40.64Z"/>
  </g>
  <g>
    <path d="M1183.77,2080.1l-62.78,336.37c-41.42-4.95-74.73,5.46-103.96,23.64" fill="none" stroke="#000" stroke-linecap="round" stroke-linejoin="round" stroke-width="52.45"/>
    <path d="M1698.83,2099.08l62.78,328.41c41.47-4.57,76.06,6.09,103.96,31.6" fill="none" stroke="#000" stroke-linecap="round" stroke-linejoin="round" stroke-width="52.45"/>
    <path d="M679.01,1707.53s-135.95,13.13-192.25,116.71" fill="none" stroke="#000" stroke-linecap="round" stroke-linejoin="round" stroke-width="52.45"/>
    <path d="M2211.19,1707.53s135.95,13.13,192.25,116.71" fill="none" stroke="#000" stroke-linecap="round" stroke-linejoin="round" stroke-width="52.45"/>
  </g>
</svg>