<?xml version="1.0" encoding="UTF-8"?>
<svg id="Layer_1" data-name="Layer 1" xmlns="http://www.w3.org/2000/svg" viewBox="0 0 3000 3000">
  <path d="M2468.64,1214.08h-201.58c-41.06-368.09-355.48-656.76-734.06-656.76h0c-378.58,0-693,288.66-734.06,656.76h-202.55c-168.97,0-307.21,138.25-307.21,307.22h0c0,168.97,138.25,307.22,307.21,307.22h202.55c41.06,368.09,355.48,656.76,734.06,656.76h0c378.58,0,693-288.66,734.06-656.76h201.58c168.97,0,307.22-138.25,307.22-307.22h0c0-168.97-138.25-307.22-307.22-307.22Z" fill="#e87725" stroke="#000" stroke-miterlimit="10" stroke-width="14.49"/>
  <path d="M2403.62,1171.49h-201.58c-41.06-368.09-355.48-656.76-734.06-656.76h0c-378.58,0-693,288.66-734.06,656.76h-202.55c-168.97,0-307.21,138.25-307.21,307.22h0c0,168.97,138.25,307.22,307.21,307.22h202.55c41.06,368.09,355.48,656.76,734.06,656.76h0c378.58,0,693-288.66,734.06-656.76h201.58c168.97,0,307.22-138.25,307.22-307.22h0c0-168.97-138.25-307.22-307.22-307.22Z" fill="#fff" stroke="#000" stroke-miterlimit="10" stroke-width="14.49"/>
  <g>
    <path d="M2105.29,1237.98H830.66s7.1-566.73,640.87-566.73,633.77,566.73,633.77,566.73Z" fill="#e36825" stroke="#000" stroke-miterlimit="10" stroke-width="13.32"/>
    <path d="M2041.46,1231.15H894.49s6.39-503.82,576.68-503.82,570.29,503.82,570.29,503.82Z" fill="#f4d078"/>
    <g>
      <path d="M1487.21,1081.19h-36.45l-102.49-254.64c0-66.69,239.42-66.69,239.42,0l-100.48,254.64Z" fill="#ea7724"/>
      <path d="M1466.15,957.67s37.06-42.47,21.87-68.48c-15.19-26.01-40.1,0-40.1,0,0,0-15.8,28.13,18.23,68.48Z" fill="#fff"/>
    </g>
    <g>
      <path d="M1622.67,1191.79l-11.04-30.35,246.71-162.48c72.75-20.21,145.28,179.13,72.54,199.33l-308.2-6.51Z" fill="#ea7724"/>
      <path d="M1751.03,1136.84s57.55,17.99,81.32-2.54c23.77-20.53-12.15-33.39-12.15-33.39,0,0-35.48-4.63-69.17,35.92Z" fill="#fff"/>
    </g>
    <g>
      <path d="M1560.84,1121.8l-28.33-20.03,103.69-254.26c48.02-51.84,234.12,79.75,186.1,131.59l-261.46,142.71Z" fill="#ea7724"/>
      <path d="M1633.42,1014.23s59.39-12.64,66.31-41.21c6.92-28.57-31.17-22.04-31.17-22.04,0,0-32.54,13.19-35.14,63.25Z" fill="#fff"/>
    </g>
    <g>
      <path d="M1304.19,1191.79l11.04-30.35-246.71-162.48c-72.75-20.21-145.28,179.13-72.54,199.33l308.2-6.51Z" fill="#ea7724"/>
      <path d="M1175.84,1136.84s-57.55,17.99-81.32-2.54c-23.77-20.53,12.15-33.39,12.15-33.39,0,0,35.48-4.63,69.17,35.92Z" fill="#fff"/>
    </g>
    <g>
      <path d="M1366.02,1121.8l28.33-20.03-103.69-254.26c-48.02-51.84-234.12,79.75-186.1,131.59l261.46,142.71Z" fill="#ea7724"/>
      <path d="M1293.44,1014.23s-59.39-12.64-66.31-41.21c-6.92-28.57,31.17-22.04,31.17-22.04,0,0,32.54,13.19,35.14,63.25Z" fill="#fff"/>
    </g>
    <path d="M1545.28,1192.5h-154.61s23.19-42.02,77.44-42.02,77.16,42.02,77.16,42.02Z" fill="#e87724"/>
  </g>
  <g>
    <path d="M830.66,1728.25h1274.63s-7.1,566.73-640.87,566.73-633.77-566.73-633.77-566.73Z" fill="#e36825" stroke="#000" stroke-miterlimit="10" stroke-width="13.32"/>
    <path d="M894.49,1735.08h1146.97s-6.39,503.82-576.68,503.82-570.29-503.82-570.29-503.82Z" fill="#f4d078"/>
    <g>
      <path d="M1448.74,1885.04h36.45l102.49,254.64c0,66.69-239.42,66.69-239.42,0l100.48-254.64Z" fill="#ea7724"/>
      <path d="M1469.79,2008.55s-37.06,42.47-21.87,68.48c15.19,26.01,40.1,0,40.1,0,0,0,15.8-28.13-18.23-68.48Z" fill="#fff"/>
    </g>
    <g>
      <path d="M1313.27,1774.43l11.04,30.35-246.71,162.48c-72.75,20.21-145.28-179.13-72.54-199.33l308.2,6.51Z" fill="#ea7724"/>
      <path d="M1184.92,1829.38s-57.55-17.99-81.32,2.54c-23.77,20.53,12.15,33.39,12.15,33.39,0,0,35.48,4.63,69.17-35.92Z" fill="#fff"/>
    </g>
    <g>
      <path d="M1375.11,1844.42l28.33,20.03-103.69,254.26c-48.02,51.84-234.12-79.75-186.1-131.59l261.46-142.71Z" fill="#ea7724"/>
      <path d="M1302.53,1952s-59.39,12.64-66.31,41.21c-6.92,28.57,31.17,22.04,31.17,22.04,0,0,32.54-13.19,35.14-63.25Z" fill="#fff"/>
    </g>
    <g>
      <path d="M1631.76,1774.43l-11.04,30.35,246.71,162.48c72.75,20.21,145.28-179.13,72.54-199.33l-308.2,6.51Z" fill="#ea7724"/>
      <path d="M1760.11,1829.38s57.55-17.99,81.32,2.54c23.77,20.53-12.15,33.39-12.15,33.39,0,0-35.48,4.63-69.17-35.92Z" fill="#fff"/>
    </g>
    <g>
      <path d="M1569.93,1844.42l-28.33,20.03,103.69,254.26c48.02,51.84,234.12-79.75,186.1-131.59l-261.46-142.71Z" fill="#ea7724"/>
      <path d="M1642.5,1952s59.39,12.64,66.31,41.21c6.92,28.57-31.17,22.04-31.17,22.04,0,0-32.54-13.19-35.14-63.25Z" fill="#fff"/>
    </g>
    <path d="M1390.67,1773.73h154.61s-23.19,42.02-77.44,42.02-77.16-42.02-77.16-42.02Z" fill="#e87724"/>
  </g>
  <g>
    <path d="M520.54,1295.72c31.28,0,58.1,3.53,80.45,10.57,22.34,7.05,40.74,17.97,55.18,32.75,14.44,14.79,25.09,33.61,31.97,56.47,6.87,22.87,10.31,50.11,10.31,81.74s-3.87,58.71-11.6,81.22c-7.74,22.52-19.08,41-34.04,55.44-14.96,14.44-33.52,25.1-55.7,31.97-22.18,6.88-47.7,10.31-76.58,10.31s-54.67-3.52-77.36-10.57c-22.69-7.04-41.95-17.87-57.76-32.49-15.82-14.61-27.85-33.26-36.1-55.95-8.25-22.69-12.38-49.85-12.38-81.48,0-62.57,15.47-108.3,46.41-137.18,30.94-28.88,76.66-43.14,137.18-42.8ZM385.42,1352.45c6.53-5.84,13.41-10.39,20.63-13.67,7.22-3.26,13.67-5.93,19.34-7.99,5.67-2.06,10.23-3.78,13.67-5.16,3.43-1.37,4.81-2.92,4.13-4.64-.35-1.03-2.58-1.37-6.71-1.03-4.12.35-9.2,1.72-15.21,4.13-6.02,2.41-12.3,5.85-18.82,10.31-6.54,4.47-12.21,10.49-17.02,18.05ZM518.99,1545.84c22.69,0,39.88-5.42,51.57-16.25,11.68-10.83,17.53-28.62,17.53-53.38s-5.42-42.63-16.25-53.63c-10.83-11-28.45-16.5-52.86-16.5-23.72-.34-41.6,5.08-53.63,16.24-12.04,11.18-18.05,28.97-18.05,53.38s6.27,42.63,18.82,53.63c12.55,11.01,30.17,16.5,52.86,16.5Z" fill="#e97725" stroke="#000" stroke-miterlimit="10" stroke-width="16.1"/>
    <path d="M1008.39,1540.17c13.06,6.19,24.92,12.12,35.58,17.79,10.65,5.67,18.57,10.57,23.72,14.7,8.59,8.25,13.23,18.14,13.92,29.65.68,11.52-2.41,21.92-9.28,31.2-6.88,9.28-17.37,16.08-31.46,20.37-14.1,4.29-31.46,3.35-52.09-2.84-7.22-1.72-16.42-5.07-27.59-10.06-11.18-4.98-23.46-11-36.87-18.05-13.41-7.04-27.25-14.78-41.51-23.21-14.27-8.42-28.11-16.76-41.51-25.01-.35,8.6-.52,16.17-.52,22.69v15.47c-1.38,10.66-5.16,19.34-11.35,26.04s-13.58,11.52-22.17,14.44c-8.6,2.92-17.62,4.12-27.08,3.61-9.46-.52-18.23-2.49-26.3-5.93-8.08-3.43-14.79-8.25-20.11-14.44-5.33-6.19-7.99-13.58-7.99-22.18,0-4.46-.09-13.32-.26-26.56-.18-13.23-.34-28.7-.52-46.41-.17-17.7-.26-36.78-.26-57.24v-59.56c0-19.25.09-36.7.26-52.34.18-15.64.43-27.76.77-36.36,1.03-15.81,7.48-26.56,19.34-32.23s28.62-8.51,50.28-8.51c59.82.35,108.64,2.5,146.46,6.45,37.82,3.96,67.38,10.83,88.7,20.63,21.31,9.8,35.92,23.21,43.83,40.23,7.9,17.02,11.86,38.77,11.86,65.24,0,28.19-5.93,51.4-17.79,69.62-11.86,18.23-31.89,32.49-60.08,42.8ZM841.82,1458.69c36.79.35,65.41-2.32,85.87-7.99,20.45-5.67,31.37-11.94,32.75-18.82,1.37-6.87-7.48-13.32-26.56-19.34-19.08-6.01-49.77-9.02-92.05-9.02v55.18Z" fill="#e97725" stroke="#000" stroke-miterlimit="10" stroke-width="16.1"/>
    <path d="M1464.28,1596.9c1.03,7.91-.52,15.3-4.64,22.18-4.12,6.88-9.63,12.89-16.5,18.05-6.88,5.16-14.53,9.37-22.95,12.63-8.43,3.27-16.5,5.33-24.24,6.19-7.74.85-14.53.52-20.37-1.03-5.85-1.55-9.46-4.72-10.83-9.54-1.72-3.78-3.53-8.68-5.42-14.7-1.89-6.01-4.73-15.04-8.51-27.08h-85.09c-5.5,0-9.54-2.23-12.12-6.7-2.58-4.46-3.96-10.06-4.13-16.76-.18-6.7.69-13.92,2.58-21.66,1.89-7.74,4.64-14.96,8.25-21.66,3.61-6.7,7.99-12.29,13.15-16.76,5.16-4.46,10.65-6.7,16.5-6.7h33.01c-7.57-23.72-14.1-44.78-19.6-63.17-5.5-18.39-9.46-31.54-11.86-39.45-1.72,4.82-4.99,13.59-9.8,26.3-4.82,12.72-10.23,27.16-16.25,43.32-6.02,16.16-12.38,33.09-19.08,50.8-6.7,17.71-13.07,34.29-19.08,49.77-6.02,15.47-11.27,28.71-15.73,39.71-4.47,11.01-7.4,17.88-8.77,20.63-2.76,5.85-7.4,10.06-13.92,12.63-6.53,2.58-13.67,3.69-21.4,3.35-7.74-.35-15.73-1.89-23.98-4.64-8.25-2.75-15.56-6.53-21.92-11.34-6.37-4.81-11.43-10.4-15.21-16.76-3.79-6.36-4.98-13.32-3.61-20.89,3.43-10.65,8.07-23.89,13.92-39.71,5.84-15.81,12.29-32.66,19.34-50.54,7.04-17.87,14.35-36.27,21.92-55.18,7.56-18.9,14.87-36.7,21.92-53.38,7.04-16.67,13.49-31.72,19.34-45.12,5.84-13.41,10.65-23.55,14.44-30.43,3.78-6.87,9.97-12.8,18.57-17.79,8.59-4.98,18.22-8.94,28.88-11.86,10.65-2.92,22.09-4.64,34.29-5.16,12.2-.52,23.8.44,34.81,2.84,11,2.41,21.05,6.19,30.17,11.35,9.11,5.16,16.24,12.04,21.4,20.63,3.09,7.57,6.87,17.62,11.35,30.17,4.46,12.55,9.28,26.56,14.44,42.03,5.16,15.47,10.57,31.97,16.24,49.51s11,34.99,15.99,52.34c4.98,17.37,9.62,34.12,13.92,50.28,4.29,16.16,7.82,30.6,10.57,43.32Z" fill="#e97725" stroke="#000" stroke-miterlimit="10" stroke-width="16.1"/>
    <path d="M1845.9,1337.5c0,4.47.08,13.24.26,26.3.17,13.07.26,28.45.26,46.16s.08,36.87.26,57.5c.17,20.63.17,40.48,0,59.56-.18,19.08-.35,36.53-.52,52.34-.18,15.82-.26,28.03-.26,36.62-.35,9.28-4.9,17.37-13.67,24.24-8.77,6.88-19.08,11.69-30.94,14.44-11.86,2.75-23.81,3.17-35.84,1.29-12.04-1.89-21.32-6.79-27.85-14.7-6.19-7.22-14.36-17.1-24.5-29.65-10.15-12.55-21.32-26.38-33.52-41.51-12.21-15.12-25.01-31.2-38.42-48.22s-26.48-33.6-39.19-49.77v44.09c0,14.62-.09,28.36-.26,41.26-.18,12.89-.35,24.58-.52,35.07-.18,10.49-.26,18.82-.26,25.01-1.38,8.6-5.25,15.82-11.6,21.66-6.37,5.85-13.75,10.15-22.17,12.89-8.43,2.76-17.37,4.21-26.82,4.38-9.46.17-18.14-.94-26.04-3.35-7.91-2.4-14.53-5.84-19.86-10.31-5.33-4.46-8.17-10.14-8.51-17.02-.35-7.91-.6-19.42-.77-34.55-.17-15.12-.26-32.14-.26-51.05v-59.56c0-20.8.09-40.48.26-59.05.18-18.57.26-35.24.26-50.02v-33.01c1.72-13.41,7.22-23.55,16.5-30.43,9.28-6.87,19.68-11.09,31.2-12.64,11.51-1.55,22.86-.6,34.04,2.84,11.17,3.44,19.34,8.6,24.5,15.47,16.5,19.94,33,39.71,49.51,59.31,14.09,16.85,29.14,34.9,45.12,54.15,15.99,19.26,30.51,36.79,43.58,52.6v-139.76c0-10.31,2.84-18.82,8.51-25.53s12.8-11.68,21.4-14.96c8.59-3.26,17.87-4.81,27.85-4.64,9.97.18,19.25,1.89,27.85,5.16,8.59,3.27,15.81,8.08,21.66,14.44,5.84,6.37,8.77,14.01,8.77,22.95Z" fill="#e97725" stroke="#000" stroke-miterlimit="10" stroke-width="16.1"/>
    <path d="M2149.14,1439.61c18.22,0,32.92,1.21,44.09,3.61,11.17,2.41,19.77,6.11,25.79,11.09,6.01,4.99,10.06,11.09,12.12,18.31,2.06,7.22,3.09,15.65,3.09,25.27v133.57c-1.38,16.16-7.22,28.44-17.53,36.87-10.31,8.42-22.01,13.41-35.07,14.96-13.07,1.55-25.71.08-37.9-4.38-12.21-4.47-20.89-11.69-26.04-21.66-35.76,1.72-68.59-1.03-98.5-8.25s-55.79-18.39-77.61-33.52c-21.84-15.12-38.86-34.21-51.05-57.24-12.21-23.03-18.31-49.68-18.31-79.93s5.42-57.07,16.25-81.48c10.83-24.41,28.36-44.78,52.6-61.11,24.24-16.33,55.7-28.02,94.38-35.07,38.68-7.04,86.03-7.99,142.08-2.84,15.47,2.76,27.5,7.48,36.1,14.18,8.59,6.7,14.61,14.44,18.05,23.21,3.43,8.77,4.38,17.88,2.84,27.33-1.55,9.46-4.82,18.14-9.8,26.04-4.99,7.91-11.43,14.53-19.34,19.85-7.91,5.33-16.5,8.17-25.79,8.51-35.76-9.62-65.93-13.06-90.51-10.31-24.58,2.76-43.75,9.02-57.5,18.82-13.75,9.8-22.26,21.84-25.53,36.1-3.27,14.27-1.38,27.94,5.67,41,7.04,13.07,18.99,24.33,35.84,33.78,16.84,9.46,38.5,14.18,64.98,14.18v-9.28c-32.67-.34-48.99-15.29-48.99-44.87,0-18.9,6.7-33.09,20.11-42.55,13.41-9.45,35.24-14.18,65.5-14.18Z" fill="#e97725" stroke="#000" stroke-miterlimit="10" stroke-width="16.1"/>
    <path d="M2565.31,1539.65c10.65,1.38,19.34,5.16,26.04,11.35s11.68,13.58,14.96,22.17c3.26,8.6,4.72,17.79,4.38,27.59-.35,9.8-2.15,18.74-5.42,26.82-3.27,8.08-7.91,14.79-13.92,20.11-6.02,5.33-13.33,7.99-21.92,7.99-4.12,0-11.95.09-23.46.26-11.52.18-25.1.26-40.74.26h-194.17c-15.47,0-27.85-2.84-37.13-8.51-9.28-5.67-13.92-16.07-13.92-31.2v-276.93c1.03-8.59,3.61-15.64,7.74-21.14,4.13-5.5,9.19-9.97,15.21-13.41,6.01-3.43,12.63-5.84,19.85-7.22,7.22-1.37,14.61-2.06,22.18-2.06h29.91c12.71,0,26.82-.08,42.29-.26,15.47-.17,31.8-.26,48.99-.26s33.69.09,49.51.26c15.81.18,30.25.26,43.32.26s23.55.18,31.46.52c9.62,1.72,17.45,5.67,23.46,11.86,6.01,6.19,10.48,13.5,13.41,21.92,2.92,8.43,4.29,17.36,4.12,26.82-.18,9.46-1.55,18.14-4.12,26.04-2.58,7.91-6.28,14.53-11.09,19.85-4.82,5.33-10.66,8.17-17.53,8.51-8.6.35-20.72.6-36.36.77-15.65.18-32.92.26-51.83.26s-38.42-.08-58.53-.26c-20.11-.17-38.94-.26-56.47-.26v13.92h90.25c11.35-.34,20.8,1.98,28.36,6.96,7.56,4.99,13.15,11.09,16.76,18.31,3.61,7.22,5.41,15.13,5.41,23.72s-1.64,16.59-4.9,23.98c-3.27,7.4-7.99,13.59-14.18,18.56-6.19,4.99-13.75,7.48-22.69,7.48h-99.02v14.44h55.18c19.25,0,37.65.09,55.18.26,17.53.18,33.34.26,47.45.26h31.97Z" fill="#e97725" stroke="#000" stroke-miterlimit="10" stroke-width="16.1"/>
  </g>
</svg>