<?xml version="1.0" encoding="UTF-8"?>
<svg id="Layer_1" data-name="Layer 1" xmlns="http://www.w3.org/2000/svg" xmlns:xlink="http://www.w3.org/1999/xlink" viewBox="0 0 3000 3000">
  <defs>
    <clipPath id="clippath">
      <path d="M1110.33,1229.14l80.49,49.45s109.14-130.17,233.51-49.45c0,0,182.75-106.87,314.73,49.45,0,0,40.61-10.42,77.16,5.21l109.64-70.86s444.27,212.42,319.51,1015.16c-124.76,802.74-1104.56,493.51-1104.56,493.51,0,0-352.97-82.77-356.01-598.15-3.04-515.38,133.78-839.1,325.53-894.32Z" fill="none"/>
    </clipPath>
  </defs>
  <g>
    <path d="M1272.34,764.04s73.78-478.92,192.49-579.98c118.72-101.06,224.14,577.03,224.14,577.03l-416.63,2.95Z" fill="#fff" stroke="#fff" stroke-miterlimit="10" stroke-width="54.13"/>
    <path d="M1460.26,839.76s108.13-394.7,244.71-434.91c136.58-40.21,117.22,533.8,117.22,533.8l-361.93-98.89Z" fill="#fff" stroke="#fff" stroke-miterlimit="10" stroke-width="54.13"/>
    <path d="M1493.6,857.95s-108.13-394.7-244.71-434.91c-136.58-40.21-117.22,533.8-117.22,533.8l361.93-98.89Z" fill="#fff" stroke="#fff" stroke-miterlimit="10" stroke-width="54.13"/>
    <path d="M1326.45,1124.91s-380.91-288.3-485.16-238.18c-104.25,50.12,226.66,348.83,226.66,348.83l258.5-110.65Z" fill="#fff" stroke="#fff" stroke-miterlimit="10" stroke-width="54.13"/>
    <path d="M1226.49,1183.26c-2.38-5.43-268.25-409.81-240.16-499.72,28.1-89.91,421.45,323.4,421.45,323.4l-181.29,176.32Z" fill="#fff" stroke="#fff" stroke-miterlimit="10" stroke-width="54.13"/>
    <path d="M1354.82,1013.97s-104.89-393.35-14.98-520.72c89.91-127.37,236.01,286.58,236.01,286.58l-221.03,234.14Z" fill="#fff" stroke="#fff" stroke-miterlimit="10" stroke-width="54.13"/>
    <path d="M1651.31,1060.77s380.91-288.3,485.16-238.18c104.25,50.12-226.66,348.83-226.66,348.83l-258.5-110.65Z" fill="#fff" stroke="#fff" stroke-miterlimit="10" stroke-width="54.13"/>
    <path d="M1474.09,1055.71c10.02-18.04,239.48-397.44,419-420,191.6-24.07-333.59,743.53-352.84,716.6l-66.16-296.59Z" fill="#fff" stroke="#fff" stroke-miterlimit="10" stroke-width="54.13"/>
    <path d="M1312.17,1144.99s108.13-394.7,244.71-434.91c136.58-40.21,117.22,533.8,117.22,533.8l-361.93-98.89Z" fill="#fff" stroke="#fff" stroke-miterlimit="10" stroke-width="54.13"/>
    <path d="M1899.01,1100.72s204.82-103.92,250-61.75c45.18,42.17-207.84,209.34-207.84,209.34l-42.17-147.59Z" fill="#fff" stroke="#fff" stroke-miterlimit="10" stroke-width="54.13"/>
    <path d="M1610.05,1204.56s177.24-297.88,507.89-300.86c0,0-123.62,364.91-278.52,403.63-154.9,38.72-229.37-102.77-229.37-102.77Z" fill="#fff" stroke="#fff" stroke-miterlimit="10" stroke-width="54.13"/>
    <path d="M1210.46,1349.02s-362.88-223.95-340.07-252.98c22.81-29.03,323.48-16.59,387.76,78.8,64.28,95.38-47.69,174.18-47.69,174.18Z" fill="#fff" stroke="#fff" stroke-miterlimit="10" stroke-width="54.13"/>
    <path d="M1257.42,1185.29s-150.54-273.19-80.04-335.39,360.8,393.98,360.8,393.98l-280.76-58.59Z" fill="#fff" stroke="#fff" stroke-miterlimit="10" stroke-width="54.13"/>
    <path d="M1042.18,1220.39l90.69,51.5s122.96-135.57,263.08-51.5c0,0,205.89-111.3,354.59,51.5,0,0,45.76-10.85,86.93,5.43l123.53-73.8s450.85,221.23,310.29,1057.25c-140.56,836.03-1194.77,497.77-1194.77,497.77,0,0-337.81-108.48-346.39-606.75-3.43-536.75,96-873.89,312.04-931.4Z" fill="#fff" stroke="#fff" stroke-miterlimit="10" stroke-width="67.23"/>
    <g>
      <path d="M1559.13,1614.6c31.31,342.35,303.73,547.76,303.73,547.76,139.74,49.4,275,55.3,403.93,0,275.55-176.07,244.68-580.45,244.68-580.45l46.52-39.67v-162.4s-751.5-208.67-958.16,74.99h-199.66c-206.66-283.66-958.16-74.99-958.16-74.99v169.61l46.97,32.81s-31.31,404.03,244.24,580.09c141.21,49.61,276.57,55.02,403.93,0,0,0,272.42-205.41,303.73-547.76h118.25Z" fill="#fff" stroke="#fff" stroke-miterlimit="10" stroke-width="37.01"/>
      <path d="M1091.16,2050.06c-76.25,17.01-251.91,15.6-299.57-7.09-47.66-22.69-107.57-85.07-145.7-158.8-38.13-73.73-71.29-306.77-36.33-365.36,34.97-58.59,41.77-64.05,111.22-94.64,69.45-30.59,420.56-14.78,467.64,0,47.08,14.78,99.98,58.95,115.74,120.52,15.76,61.57-42.5,317.1-75.47,369.25-32.97,52.15-61.28,119.1-137.53,136.12Z" fill="#fff" stroke="#fff" stroke-miterlimit="10" stroke-width="14.18"/>
      <path d="M2187.31,2050.06c-76.25,17.01-251.91,15.6-299.57-7.09-47.66-22.69-107.57-85.07-145.7-158.8-38.13-73.73-71.29-306.77-36.33-365.36,34.97-58.59,41.77-64.05,111.22-94.64,69.45-30.59,420.56-14.78,467.64,0,47.08,14.78,99.98,58.95,115.74,120.52,15.76,61.57-42.5,317.1-75.47,369.25-32.97,52.15-61.28,119.1-137.53,136.12Z" fill="#fff" stroke="#fff" stroke-miterlimit="10" stroke-width="14.18"/>
    </g>
    <path d="M1306.33,2285.75s213.25,265.01,439.56,0" fill="#fff" stroke="#fff" stroke-miterlimit="10" stroke-width="46.01"/>
  </g>
  <g>
    <g>
      <path d="M1298.04,749.79s65.48-425.09,170.85-514.78c105.37-89.7,198.94,512.17,198.94,512.17l-369.79,2.62Z" fill="#6f903e" stroke="#000" stroke-miterlimit="10" stroke-width="48.05"/>
      <path d="M1480.66,820.76s95.98-350.33,217.2-386.02c121.23-35.69,104.04,473.79,104.04,473.79l-321.24-87.77Z" fill="#6f903e" stroke="#000" stroke-miterlimit="10" stroke-width="48.05"/>
      <path d="M1480.66,858.21s-95.98-350.33-217.2-386.02c-121.23-35.69-104.04,473.79-104.04,473.79l321.24-87.77Z" fill="#6f903e" stroke="#000" stroke-miterlimit="10" stroke-width="48.05"/>
      <path d="M1298.04,1117.41s-338.09-255.89-430.62-211.41c-92.53,44.49,201.18,309.62,201.18,309.62l229.44-98.21Z" fill="#6f903e" stroke="#000" stroke-miterlimit="10" stroke-width="48.05"/>
      <path d="M1231.48,1163.09c-2.11-4.82-238.1-363.74-213.16-443.54,24.94-79.8,374.07,287.05,374.07,287.05l-160.91,156.5Z" fill="#6f903e" stroke="#000" stroke-miterlimit="10" stroke-width="48.05"/>
      <path d="M1357.47,1091.95s-93.1-349.13-13.3-462.18c79.8-113.05,209.48,254.37,209.48,254.37l-196.18,207.82Z" fill="#6f903e" stroke="#000" stroke-miterlimit="10" stroke-width="48.05"/>
      <path d="M1679.72,1058.22s338.09-255.89,430.62-211.41c92.53,44.49-201.18,309.62-201.18,309.62l-229.44-98.21Z" fill="#6f903e" stroke="#000" stroke-miterlimit="10" stroke-width="48.05"/>
      <path d="M1500,1032.76c8.9-16.01,212.56-352.77,371.9-372.79,170.06-21.37-296.09,659.95-313.18,636.04l-58.72-263.25Z" fill="#6f903e" stroke="#000" stroke-miterlimit="10" stroke-width="48.05"/>
      <path d="M1319.62,1208.24s95.98-350.33,217.2-386.02c121.23-35.69,104.04,473.79,104.04,473.79l-321.24-87.77Z" fill="#6f903e" stroke="#000" stroke-miterlimit="10" stroke-width="48.05"/>
      <path d="M1899.01,1104.98s181.8-92.24,221.9-54.81-184.47,185.81-184.47,185.81l-37.43-131Z" fill="#6f903e" stroke="#000" stroke-miterlimit="10" stroke-width="48.05"/>
      <path d="M1584.01,1261.12s157.32-264.4,450.8-267.04c0,0-109.72,323.89-247.21,358.26-137.49,34.37-203.59-91.22-203.59-91.22Z" fill="#6f903e" stroke="#000" stroke-miterlimit="10" stroke-width="48.05"/>
      <path d="M1211.02,1316.25s-322.08-198.77-301.84-224.54c20.25-25.77,287.11-14.72,344.17,69.94s-42.33,154.6-42.33,154.6Z" fill="#6f903e" stroke="#000" stroke-miterlimit="10" stroke-width="48.05"/>
      <path d="M1271.02,1244.01s-133.62-242.47-71.04-297.69c62.58-55.21,320.24,349.69,320.24,349.69l-249.2-52Z" fill="#6f903e" stroke="#000" stroke-miterlimit="10" stroke-width="48.05"/>
    </g>
    <path d="M1099.62,1212.4l80.49,50s109.14-131.62,233.51-50c0,0,182.75-108.06,314.73,50,0,0,40.61-10.54,77.16,5.27l109.64-71.65s444.27,214.78,319.51,1026.45c-124.76,811.67-1104.56,499-1104.56,499,0,0-352.97-83.69-356.01-604.8-3.04-521.11,133.78-848.43,325.53-904.27Z" fill="#f9ad1b" stroke="#000" stroke-miterlimit="10" stroke-width="62.41"/>
    <g opacity=".72">
      <g clip-path="url(#clippath)">
        <g>
          <line x1="1652.41" y1="2895.4" x2="2544.32" y2="1723.74" fill="#fbac18" stroke="#000" stroke-miterlimit="10" stroke-width="31.1"/>
          <line x1="1443.46" y1="2868.37" x2="2335.37" y2="1696.7" fill="#fbac18" stroke="#000" stroke-miterlimit="10" stroke-width="31.1"/>
          <line x1="1189.51" y1="2862.11" x2="2279.1" y2="1453.68" fill="#fbac18" stroke="#000" stroke-miterlimit="10" stroke-width="31.1"/>
          <line x1="987.26" y1="2790.1" x2="2162.96" y2="1293.28" fill="#fbac18" stroke="#000" stroke-miterlimit="10" stroke-width="31.1"/>
          <line x1="676.04" y1="2868.37" x2="2118.57" y2="1019.81" fill="#fbac18" stroke="#000" stroke-miterlimit="10" stroke-width="31.1"/>
          <line x1="486.84" y1="2762.1" x2="1929.37" y2="913.54" fill="#fbac18" stroke="#000" stroke-miterlimit="10" stroke-width="31.1"/>
          <line x1="315.49" y1="2648.01" x2="1758.02" y2="799.46" fill="#fbac18" stroke="#000" stroke-miterlimit="10" stroke-width="31.1"/>
          <line x1="183.4" y1="2545.41" x2="1625.94" y2="696.85" fill="#fbac18" stroke="#000" stroke-miterlimit="10" stroke-width="31.1"/>
        </g>
        <g>
          <line x1="1337.39" y1="2895.4" x2="445.48" y2="1723.74" fill="#fbac18" stroke="#000" stroke-miterlimit="10" stroke-width="31.1"/>
          <line x1="1546.33" y1="2868.37" x2="654.42" y2="1696.7" fill="#fbac18" stroke="#000" stroke-miterlimit="10" stroke-width="31.1"/>
          <line x1="1800.28" y1="2862.11" x2="710.69" y2="1453.68" fill="#fbac18" stroke="#000" stroke-miterlimit="10" stroke-width="31.1"/>
          <line x1="2002.54" y1="2790.1" x2="826.84" y2="1293.28" fill="#fbac18" stroke="#000" stroke-miterlimit="10" stroke-width="31.1"/>
          <line x1="2313.76" y1="2868.37" x2="871.23" y2="1019.81" fill="#fbac18" stroke="#000" stroke-miterlimit="10" stroke-width="31.1"/>
          <line x1="2502.96" y1="2762.1" x2="1060.43" y2="913.54" fill="#fbac18" stroke="#000" stroke-miterlimit="10" stroke-width="31.1"/>
          <line x1="2674.31" y1="2648.01" x2="1231.78" y2="799.46" fill="#fbac18" stroke="#000" stroke-miterlimit="10" stroke-width="31.1"/>
          <line x1="2806.39" y1="2545.41" x2="1363.86" y2="696.85" fill="#fbac18" stroke="#000" stroke-miterlimit="10" stroke-width="31.1"/>
        </g>
      </g>
    </g>
    <g>
      <path d="M1556.79,1626.94c30.08,315.81,291.75,505.3,291.75,505.3,134.23,45.57,264.15,51.01,388,0,264.68-162.42,234.6-563.48,234.6-563.48l45.12-32.05v-126.32s-721.85-192.49-920.36,69.18h-191.79c-198.51-261.67-920.36-69.18-920.36-69.18v126.32l45.12,32.05s-30.08,401.06,234.6,563.48c135.64,45.77,265.66,50.75,388,0,0,0,261.67-189.49,291.75-505.3h113.59Z" fill="#ed2024" stroke="#000" stroke-miterlimit="10" stroke-width="54.05"/>
      <path d="M1107.29,2028.65c-73.25,15.7-241.97,14.39-287.75-6.54-45.78-20.93-103.33-78.48-139.95-146.49-36.62-68.01-68.48-282.99-34.89-337.03,33.59-54.05,40.13-59.09,106.83-87.3,66.71-28.22,403.97-13.64,449.19,0,45.22,13.64,96.04,54.38,111.18,111.18,15.14,56.8-40.82,292.52-72.5,340.63-31.67,48.11-58.86,109.87-132.1,125.56Z" stroke="#000" stroke-miterlimit="10" stroke-width="13.35"/>
      <path d="M2160.2,2028.65c-73.25,15.7-241.97,14.39-287.75-6.54-45.78-20.93-103.33-78.48-139.95-146.49-36.62-68.01-68.48-282.99-34.89-337.03,33.59-54.05,40.13-59.09,106.83-87.3,66.71-28.22,403.97-13.64,449.19,0,45.22,13.64,96.04,54.38,111.18,111.18,15.14,56.8-40.82,292.52-72.5,340.63-31.67,48.11-58.86,109.87-132.1,125.56Z" stroke="#000" stroke-miterlimit="10" stroke-width="13.35"/>
      <circle cx="1823.13" cy="1568.38" r="49.43" fill="#fff"/>
      <circle cx="774.04" cy="1568.38" r="49.43" fill="#fff"/>
    </g>
  </g>
</svg>