<?xml version="1.0" encoding="UTF-8"?>
<svg id="Layer_2" xmlns="http://www.w3.org/2000/svg" version="1.1" viewBox="0 0 2053.7 1858.7">
  <!-- Generator: Adobe Illustrator 29.3.0, SVG Export Plug-In . SVG Version: 2.1.0 Build 146)  -->
  <defs>
    <style>
      .st0 {
        stroke: #fff;
        stroke-width: 6px;
      }

      .st0, .st1, .st2, .st3 {
        fill: #fff;
      }

      .st0, .st1, .st4, .st5, .st6, .st7, .st8 {
        stroke-miterlimit: 10;
      }

      .st0, .st2, .st7 {
        stroke-linecap: round;
      }

      .st1, .st2, .st4, .st5, .st6, .st7, .st8 {
        stroke: #000;
        stroke-width: 20px;
      }

      .st9 {
        fill: #e87c98;
        isolation: isolate;
        opacity: .2;
      }

      .st2 {
        stroke-linejoin: round;
      }

      .st4 {
        fill: #004025;
      }

      .st5 {
        fill: #548b53;
      }

      .st10 {
        fill: #f44768;
      }

      .st6, .st7 {
        fill: none;
      }

      .st11 {
        fill: #d4234f;
      }
    </style>
  </defs>
  <g id="Layer_1-2">
    <g>
      <g>
        <path class="st11" d="M1965.6,921.8c0,52.8-19.9,103-30,153.2-10.3,51.3-11.6,105.3-31.5,152.9-20,47.9-57.6,86.8-86.3,130.1-28.7,43.3-49.7,92.8-85.9,130.4-35.7,37.1-84.6,60.2-126.8,91.2-41.4,30.4-78.1,70.1-124.9,93.8-45.8,23.1-99.5,29.2-149.5,45.1-48.8,15.5-96,41.7-148.1,49.7-50.4,7.7-103.4-3-156.2-3s-105.8,10.7-156.2,3c-50.4-7.7-99.3-34.2-148.1-49.7-50.1-15.9-103.8-22-149.5-45.1-46.8-23.6-83.4-63.4-124.9-93.8-42.2-31-91.1-54.1-126.8-91.2-36.2-37.6-57.3-87.3-85.9-130.4-28.7-43.3-66.3-82.2-86.3-130.1-19.9-47.6-21.2-101.6-31.5-152.9-10.1-50.1-30-100.4-30-153.2s19.9-103,30-153.2c10.3-51.3,11.6-105.3,31.5-152.9,20-47.9,57.6-86.8,86.3-130.1,28.6-43,49.7-92.8,85.9-130.4,35.7-37.1,84.6-60.2,126.8-91.2,41.4-30.4,78.1-70.1,124.9-93.8,45.8-23.1,99.5-29.2,149.5-45.1,48.8-15.5,96-41.7,148.1-49.7,50.4-7.7,103.4,3,156.2,3s105.8-10.7,156.2-3c52.1,8,99.3,34.2,148.1,49.7,50.1,15.9,103.8,22,149.5,45.1,46.8,23.6,83.4,63.4,124.9,93.8,42.2,31,91.1,54.1,126.8,91.2,36.2,37.6,57.3,87.3,85.9,130.4,28.7,43.3,66.3,82.2,86.3,130.1,19.9,47.6,21.2,101.6,31.5,152.9,10.1,50.1,30,100.4,30,153.2h0Z"/>
        <path class="st6" d="M1965.6,921.8c0,52.8-19.9,103-30,153.2-10.3,51.3-11.6,105.3-31.5,152.9-20,47.9-57.6,86.8-86.3,130.1-28.7,43.3-49.7,92.8-85.9,130.4-35.7,37.1-84.6,60.2-126.8,91.2-41.4,30.4-78.1,70.1-124.9,93.8-45.8,23.1-99.5,29.2-149.5,45.1-48.8,15.5-96,41.7-148.1,49.7-50.4,7.7-103.4-3-156.2-3s-105.8,10.7-156.2,3c-50.4-7.7-99.3-34.2-148.1-49.7-50.1-15.9-103.8-22-149.5-45.1-46.8-23.6-83.4-63.4-124.9-93.8-42.2-31-91.1-54.1-126.8-91.2-36.2-37.6-57.3-87.3-85.9-130.4-28.7-43.3-66.3-82.2-86.3-130.1-19.9-47.6-21.2-101.6-31.5-152.9-10.1-50.1-30-100.4-30-153.2s19.9-103,30-153.2c10.3-51.3,11.6-105.3,31.5-152.9,20-47.9,57.6-86.8,86.3-130.1,28.6-43,49.7-92.8,85.9-130.4,35.7-37.1,84.6-60.2,126.8-91.2,41.4-30.4,78.1-70.1,124.9-93.8,45.8-23.1,99.5-29.2,149.5-45.1,48.8-15.5,96-41.7,148.1-49.7,50.4-7.7,103.4,3,156.2,3s105.8-10.7,156.2-3c52.1,8,99.3,34.2,148.1,49.7,50.1,15.9,103.8,22,149.5,45.1,46.8,23.6,83.4,63.4,124.9,93.8,42.2,31,91.1,54.1,126.8,91.2,36.2,37.6,57.3,87.3,85.9,130.4,28.7,43.3,66.3,82.2,86.3,130.1,19.9,47.6,21.2,101.6,31.5,152.9,10.1,50.1,30,100.4,30,153.2h0Z"/>
      </g>
      <g>
        <path class="st3" d="M620.7,1283.8l907.2-168.6s155.9,556.4-425.6,594.3c0,0-447.6,42.1-481.6-425.7h0Z"/>
        <path class="st0" d="M769.2,1501.2l-360.4-261.9c-4.9-3.5-6-10.5-2.5-15.5l8.5-12.1c3.5-5,10.3-6.1,15.2-2.6l360.4,261.9c4.9,3.5,6,10.5,2.5,15.5l-8.5,12.1c-3.5,5-10.3,6.1-15.2,2.6Z"/>
        <path class="st0" d="M1429.3,1378l221.3-390.7c3-5.3,9.7-7.1,14.9-4.1l7.6,4.5c5.2,3,7,9.9,4,15.2l-221.3,390.7c-3,5.3-9.7,7.1-14.9,4.1l-7.6-4.5c-5.2-3-7-9.9-4-15.2Z"/>
        <line class="st7" x1="1493.2" y1="1279.7" x2="1659.5" y2="1008.9"/>
        <line class="st7" x1="698.2" y1="1422.4" x2="441" y2="1239.7"/>
        <g>
          <path class="st4" d="M664.9,1304.1l823.5-146.7s141.5,484.3-386.4,517.3c0,0-406.3,36.7-437.2-370.5h0Z"/>
          <path class="st5" d="M693.9,1293.3l760.1-130.4s74.6,318.9-195.9,439.7c-94.9,42.4-201.8,48.2-301.1,18.2-110.8-33.5-246.5-117.4-263.1-327.5h0Z"/>
          <path class="st10" d="M721.1,1285.8l702.4-124.4s76.6,282.7-172.5,396.9c-87.4,40.1-186.8,47.8-279.9,23.4-103.9-27.2-229.8-109-250-295.9h0Z"/>
          <path class="st9" d="M721.1,1276.7l625.4,221.2s139.2-154.8,72.2-350.2l-697.6,129h0Z"/>
          <ellipse cx="822.7" cy="1393.1" rx="18.1" ry="15.6"/>
          <ellipse cx="918.1" cy="1288.4" rx="18.1" ry="15.6"/>
          <ellipse cx="934.9" cy="1498.9" rx="18.1" ry="15.6"/>
          <ellipse cx="1099.8" cy="1521.8" rx="18.1" ry="15.6"/>
          <ellipse cx="1352.9" cy="1369.8" rx="18.1" ry="15.6"/>
          <ellipse cx="1386" cy="1232.1" rx="18.1" ry="15.6"/>
          <ellipse cx="1271.1" cy="1461.7" rx="18.1" ry="15.6"/>
          <path d="M1168.2,1351.3c22,30.5,58.7,40.8,82.1,23.1,23.4-17.8,24.5-56.8,2.5-87.3-22-30.5-58.7-40.8-82.1-23.1-23.4,17.8-24.5,56.8-2.5,87.3Z"/>
          <path class="st3" d="M1194.1,1331c9.4,13,26,16.7,37.2,8.2,11.1-8.5,12.6-25.8,3.2-38.8-9.4-13-26-16.7-37.2-8.2-11.1,8.5-12.6,25.8-3.2,38.8Z"/>
          <ellipse cx="1014.5" cy="1382.5" rx="68.5" ry="52.8" transform="translate(-389.7 2366.9) rotate(-88.8)"/>
          <ellipse class="st3" cx="1015.7" cy="1379.9" rx="29.2" ry="25.1" transform="translate(-388.2 2362.3) rotate(-88.6)"/>
          <path class="st2" d="M1098.8,1464.9l97.6-47.6c7.3-3.6,15.9,1,17.2,9.1,0,.1,0,.2,0,.3,13.5,85.5-87.8,121.5-114.1,40.4-.2-.8-.6-2-.7-2.3h0Z"/>
          <polygon class="st8" points="1491 1153.4 666.1 1310.7 663.8 1298.6 1488.8 1141.3 1491 1153.4"/>
        </g>
      </g>
      <g>
        <path class="st1" d="M363,497h6.3c12.7,0,21.1,11.5,25.1,34.6,3.1,7.8,8.1,23.5,15.1,47.2h1.3c7.3-16.7,17.3-25,30.2-25s23.9,11.5,41.5,34.6c1.6,1,2.8,1.4,3.8,1.4,12.6-49.3,18.9-75.2,18.9-77.7,6-8.3,11.4-12.5,16.3-12.5h8.8c10.7,0,18.2,8.3,22.6,25v6.9c-20.2,90.7-35.3,136-45.2,136-2.3,3.7-7.3,5.6-15.1,5.6s-23.4-11.6-37.7-34.7l-7.5-6.9h-1.3c-1.2,0-6.6,11.1-16.3,33.3-6.5,9.3-13.2,13.9-20.1,13.9h-5.1c-18.6,0-33.6-30.5-45.1-91.6-11.8-33.8-17.7-56.5-17.7-68.1,4.4-14.8,11.5-22.1,21.4-22.1h0Z"/>
        <path class="st1" d="M743.5,530.2c18.7,18.3,28.1,40.5,28.1,66.4s-9.4,48.1-28.1,66.4c-18.7,18.3-41.3,27.5-67.7,27.5s-49.1-9.2-67.8-27.5c-18.7-18.3-28-40.5-28-66.4s9.3-48.1,28-66.4c18.7-18.3,41.3-27.5,67.8-27.5s49,9.2,67.7,27.5ZM675.2,558.8c-10.4,0-19.3,3.7-26.6,11-7.3,7.3-11,16.2-11,26.5s3.7,19.3,11,26.6c7.3,7.3,16.2,11,26.6,11s19.3-3.7,26.6-11c7.3-7.3,11-16.2,11-26.6s-3.7-19.1-11-26.5c-7.3-7.3-16.2-11-26.6-11Z"/>
        <path class="st1" d="M873.9,488.7c40.9,0,67.3,16.7,79.2,50,1.7,5.3,2.5,11.3,2.5,18,0,17.5-13.2,35.2-39.6,53.3,35,12.7,52.6,25.8,52.6,39.4s-.1,2.2-.3,3.3c-3.2,14.8-13.1,23.6-29.8,26.4-28.9-4.7-51-18.8-66.3-42.2,0,10.5.3,18.5,1,23.9s1,10.5,1,15.5c-.5,14-8,21.4-22.6,22-.9,0-1.7.1-2.6.1-12.3,0-21.1-6.5-26.4-19.5-3.4-23.7-5.5-46.9-6.4-69.5.9-23.4,2.3-41.5,4.4-54.3l-4.4.2c-7.5,0-14.5-1.3-20.7-3.9s-9.4-10.6-9.4-24c0-22.2,20.9-35.1,62.8-38.8h25.2ZM873.9,575.2c13.6-5,20.5-9.8,20.5-14.5v-.2c-.3-4.8-6.8-7.8-19.5-9.2l-1,23.9h0Z"/>
        <path class="st1" d="M1057.8,487.3c3.4-.2,6.6-.2,9.6-.2,31.3,0,47,9.1,47,27.4v3c0,15.5-8.4,24-25.2,25.5h-10c-1.7.2-2.5,1.2-2.5,2.7,0,5.9-.3,43.4-.9,112.5-4.4,14.8-12.7,22.3-25.1,22.3s-25.2-14.4-25.2-43.1c-.3-14.3-.4-27.2-.4-38.7,0-20.9.5-37.2,1.4-48.9-8.4,3.8-13.9,5.7-16.4,5.7h-2.6c-15.1-3.4-22.6-13.6-22.6-30.6s24.3-33.2,72.9-37.5h0Z"/>
        <path class="st1" d="M1288.1,492.9c15.1,3.8,22.6,12.1,22.6,25v4.2c-4.2,30.6-6.2,55.1-6.2,73.5v9.6c0,12,.6,24.2,1.9,36.8.4,4.6.6,8.8.6,12.7,0,6.9-.7,12.8-2.1,17.9-2.2,7.9-9.9,11.8-23.2,11.8s-23.2-5.8-25.4-17.5c-2.2-11.7-3.3-26.2-3.3-43.5-10.6-1.3-21-1.9-31.1-1.9s-19.9.6-29.5,1.9c0,8,1.3,21,3.8,38.9v2.7c0,14.4-8.4,22.8-25.1,25-17.6-3.3-26.4-15.8-26.4-37.5v-25.3h-.8c-8.3,0-13.1-8.2-14.2-24.5-.1-1.6-.2-3.2-.2-4.8,0-14,4.8-23.2,14.3-27.5,1.6-33.1,4.8-52.9,9.8-59.5,3.7-5.1,9.3-7.6,16.6-7.6s4.6.2,7.1.7c11.2,0,18.4,8.3,21.4,25v4.2c-3.4,15.6-5.3,27.5-5.8,35.5,10.8-1,21-1.5,30.5-1.5s21.3.7,30.4,2.1l5.3-40.2c3-24,12.6-36.1,28.9-36.1h0Z"/>
        <path class="st1" d="M1417.2,556.6h2.5c21,1.2,31.5,10,31.5,26.4v4.2c0,13.3-8,21.7-23.9,25-1.8,0-6.4-.5-13.8-1.4-14,1-29.5,2.8-46.4,5.6-19.3-2.8-29-13-29-30.6,2.9-16.7,10.4-25,22.6-25,27.9-2.8,46.7-4.2,56.6-4.2Z"/>
        <path class="st1" d="M1547,505.4h8.7c23.7,0,47.2,34.2,70.5,102.7,7.5,27.1,11.3,47.4,11.3,61v1.4c0,14.1-8.4,22.5-25.2,25-11.2,0-19.6-8.8-25.1-26.4l-2.5-1.4h-20.1c-38.6,2.2-57.8,5.5-57.8,9.8-2,11.7-8.3,18.6-18.7,20.8h-10.1c-10.5-2.3-16.8-9.2-18.9-20.8v-11.1c0-9.5,13.8-46.1,41.5-109.7,16.3-34.2,31.8-51.3,46.5-51.3h0ZM1521.3,616.5c14-2.1,29-3.2,45-3.2s6,0,9.1.1c-4.5-16.9-13.5-33.3-27-49.3-9.9,15.4-18.9,32.8-27,52.4Z"/>
        <path class="st1" d="M723.5,782.5c16.9,0,35.7,43,56.5,129.1,3.7,12,5.5,22.2,5.5,30.7s-.8,10.5-2.3,14.6c-4,10.5-11,15.7-20.8,15.7-13.9,0-22.8-8.4-26.5-25.3-3.7-16.9-11.2-44-22.5-81.6-16.4,29-31.5,43.5-45.1,43.5h-.4c-13.9-.3-26.3-12.1-37.4-35.2l-15.1,62.5c-5.4,31.5-15.8,47.2-31.3,47.2s-14.4-3.9-19-11.8c-2.6-4.2-3.9-9.4-3.9-15.5s.9-10.8,2.7-17.3c9.3-50.3,18.9-93.3,29-129,6.4-16.7,16.4-25,30.1-25s28.7,15.7,46.5,47.1c2.2,0,7.7-8.8,16.6-26.3,8.1-15.9,19.2-23.9,33.2-23.9s2.9,0,4.3.2h0Z"/>
        <path class="st1" d="M962.5,815.8c2.6,5.6,3.9,10.8,3.9,15.4,0,6.9-2.9,12.7-8.7,17.4-6,4.8-11.8,7.1-17.6,7.1s-7.1-1-10.7-2.9c-5.4-2.9-11.4-4.4-18-4.4s-9.3.7-14.4,2c-12.6,3.4-18.9,7.6-18.9,12.6s2.2,2.5,6.7,2.5,5.5-.3,9.3-.8c2.2-.2,4.3-.4,6.2-.4,7.5,0,13.4,2.1,17.7,6.3,4.3,4.4,6.5,10.8,6.5,19.3s-.1,3.8-.3,5.8c-1.1,11.4-8.4,19.8-21.9,25.1-22,5.6-33,10.8-33,15.7.3,1.8,1.1,2.7,2.5,2.7h2.6c22.6,0,47.8-10.2,75.4-30.5,2.2-.5,4.3-.7,6.4-.7,12.1,0,19.3,9.1,21.9,27.2.3,2.1.4,4.2.4,6.2,0,18.2-12.2,31.8-36.6,40.9-22.9,8.6-45,12.8-66.3,12.8s-7.7-.2-11.5-.5c-24.8-1.8-41.5-15.7-50-41.6-.9-5-1.3-10.5-1.3-16.7,0-13.8,5.5-27.2,16.4-40.2-5.9-10.6-8.8-22.2-8.8-34.7,0-25.5,12.2-44.3,36.6-56.2,20.3-9.8,38.9-14.8,56-14.8s6.9.2,10.2.6c19.7,2.5,32.8,10.6,39.3,24.5h0Z"/>
        <path class="st1" d="M1038.7,781.1h5c12.3,0,19.8,9.2,22.6,27.7-5,66.2-7.5,104.1-7.5,113.8l3.8,2.9c21.9-3.7,34.9-5.6,39-5.6,16.7,3.4,25.1,12.7,25.1,27.7s-10.1,26.7-30.2,27.8c-21.4,3.6-34.8,5.5-40.2,5.5-21.3,0-35.9-8.8-44-26.3-1.7-6.4-2.6-12-2.6-16.7v-18.1c3.5-86.9,7.7-130.4,12.6-130.4,5.5-5.6,11-8.3,16.4-8.3h0Z"/>
        <path class="st1" d="M1317.4,822.7c18.7,18.3,28.1,40.5,28.1,66.4s-9.4,48.1-28.1,66.4c-18.7,18.3-41.3,27.5-67.7,27.5s-49.1-9.2-67.8-27.5c-18.7-18.3-28-40.5-28-66.4s9.3-48.1,28-66.4c18.7-18.3,41.3-27.5,67.8-27.5s49,9.2,67.7,27.5ZM1249.1,851.2c-10.4,0-19.3,3.7-26.6,11-7.3,7.3-11,16.2-11,26.5s3.7,19.3,11,26.6c7.3,7.3,16.2,11,26.6,11s19.3-3.7,26.6-11c7.3-7.3,11-16.2,11-26.6s-3.7-19.1-11-26.5c-7.3-7.3-16.2-11-26.6-11Z"/>
        <path class="st1" d="M1512,781.4c13.4,4.4,21.9,22.8,25.5,55.1,3,27.4,4.5,53.4,4.5,78.2s0,8.7-.1,13c-.6,28.6-10.1,44.9-28.3,49.1-16,0-34-14.8-54.1-44.4-22.3-28.7-34-43.1-35.2-43.1h-1.2l-1.3,2.9v62.5c0,11.6-5.9,19.9-17.6,25h-12.6c-12.6-4.4-18.9-12.7-18.9-25v-69.5c0-38.5,5-61.6,15.1-69.4,5.8-4.6,11.3-6.9,16.4-6.9h5.1c16.1,0,40.5,23.8,73.1,71.3,1.6.9,2.8,1.3,3.8,1.3l1.2-2.7c-4-24.4-6-43.9-6-58.3s3-28,9.2-30.7c3.4-5.6,10.6-8.3,21.4-8.3h0Z"/>
      </g>
    </g>
  </g>
</svg>