<?xml version="1.0" encoding="UTF-8"?>
<svg id="Layer_2" xmlns="http://www.w3.org/2000/svg" version="1.1" viewBox="0 0 2764.8 2805.4">
  <!-- Generator: Adobe Illustrator 29.3.1, SVG Export Plug-In . SVG Version: 2.1.0 Build 151)  -->
  <defs>
    <style>
      .st0 {
        fill: #40cce6;
        stroke-width: 20px;
      }

      .st0, .st1 {
        stroke: #000;
        stroke-miterlimit: 10;
      }

      .st2 {
        fill: #232122;
      }

      .st1 {
        fill: #fffad2;
        stroke-width: 15px;
      }
    </style>
  </defs>
  <g id="Layer_1-2">
    <g>
      <path class="st2" d="M1875.1,263s846.9,293.4,805.8,1085.1c-41.1,791.7-1091.7,905.5-1091.7,905.5l-318,7.6s-48.2,247.9,71.5,412.3l-316.2-574.2"/>
      <path class="st0" d="M762,2114.5S-238.5,1922.3,186.7,885.3C514.3,86.3,1380.6,164.1,1761.2,241.9c179.2,36.7,351.7,125.3,502.1,268,171.4,162.6,339.1,416.9,292.6,769.9-89.3,677.9-821.9,875.2-821.9,875.2,0,0-321.6,91.1-496.7,55.6-175.1-35.4,110.8,490.7,110.8,490.7,0,0-582.5-131.5-586-586.8h-.1Z"/>
      <g>
        <path class="st1" d="M835.3,568.4c51.3,0,108.5,274.3,171.6,822.5,11.3,76.3,16.7,141.5,16.7,195.4s-2.3,67.2-6.8,93.1c-12.2,66.7-33.3,100.3-63,100.3-42.3,0-69.3-54-80.6-160.8-11.3-107.4-34.2-280.4-68.4-519.7-50,184.8-95.9,277.4-137.3,277.4h-1.4c-42.3-2-80.2-76.9-113.5-224.5l-45.9,398c-16.2,200.5-48.2,300.8-95.5,300.8s-43.7-24.9-57.6-74.8c-7.7-27-11.7-59.5-11.7-98.7s2.7-69.2,8.1-109.9c28.4-320.7,57.6-594.5,88.3-822,19.4-106.4,50-159.3,91.4-159.3s87.4,100.3,141.4,300.3c6.8,0,23.4-56,50.4-167.5,24.8-101.8,58.5-152.2,100.9-152.2s8.6,0,13.1,1.5h0Z"/>
        <path class="st1" d="M1603.9,824.4c56.7,116.6,85.1,257.5,85.1,423s-28.4,306.4-85.1,423c-56.7,116.6-125.6,175.1-205.8,175.1s-149-58.5-206.2-175.1c-56.7-116.6-85.1-257.5-85.1-423s28.4-306.4,85.1-423c56.7-116.6,125.6-175.1,206.2-175.1s149,58.5,205.8,175.1ZM1318.4,1064.1c-7.7-1.5-14.9-2.5-21.6-2.5-37.8,0-56.7,27.5-56.7,82.5s.5,21.9,1.8,34.1c0,36.6,12.6,80.9,38.3,132.8-10.4,87.5-15.3,134.9-15.3,142,6.8,46.8,19.8,70.7,38.3,70.7s35.1-35.1,91.9-106.4c44.1,70.7,74.3,106.4,91.9,106.4,20.3-15.3,30.6-41.7,30.6-79.4v-9.2l-18.9-141c11.3-25.4,21.6-69.7,30.6-132.8,0-58.5-23-94.2-68.9-106.4-24.8-101.3-48.2-151.7-69.8-151.7s-43.7,53.4-71.6,160.8h-.5Z"/>
        <path class="st1" d="M2269.4,824.4c56.7,116.6,85.1,257.5,85.1,423s-28.4,306.4-85.1,423c-56.7,116.6-125.6,175.1-205.8,175.1s-149-58.5-206.2-175.1c-56.7-116.6-85.1-257.5-85.1-423s28.4-306.4,85.1-423c56.7-116.6,125.6-175.1,206.2-175.1s149,58.5,205.8,175.1ZM1984,1064.1c-7.7-1.5-14.9-2.5-21.6-2.5-37.8,0-56.7,27.5-56.7,82.5s.5,21.9,1.8,34.1c0,36.6,12.6,80.9,38.3,132.8-10.4,87.5-15.3,134.9-15.3,142,6.8,46.8,19.8,70.7,38.3,70.7s35.1-35.1,91.9-106.4c44.1,70.7,74.3,106.4,91.9,106.4,20.3-15.3,30.6-41.7,30.6-79.4v-9.2l-18.9-141c11.3-25.4,21.6-69.7,30.6-132.8,0-58.5-23-94.2-68.9-106.4-24.8-101.3-48.2-151.7-69.8-151.7s-43.7,53.4-71.6,160.8h-.5Z"/>
      </g>
    </g>
  </g>
</svg>