<?xml version="1.0" encoding="UTF-8"?>
<svg id="Layer_2" data-name="Layer 2" xmlns="http://www.w3.org/2000/svg" viewBox="0 0 2764.99 1860.97">
  <g id="Layer_1-2" data-name="Layer 1">
    <g>
      <path d="M851.5,1360.85s-18.27,450.73,120.27,484.29c138.54,33.56,161.38-88.71,161.38-88.71l47.2-203.79" fill="#fff" stroke="#000" stroke-miterlimit="10" stroke-width="20"/>
      <path d="M1794.92,1355.25s18.27,450.73-120.27,484.29c-138.54,33.56-161.38-88.71-161.38-88.71l-47.2-203.79" fill="#fff" stroke="#000" stroke-miterlimit="10" stroke-width="20"/>
      <g>
        <path d="M1125.25,229.99c-15.37-30.59-46.51-103.6-34.46-173.4,5.72-33.18-22.49-50.92-43.28-27.52-.61.69-1.23,1.39-1.85,2.1-.44.5-.88.98-1.33,1.45-8.62,8.79-86.6,110.03-98.81,217.5-5,43.97-14.93,88.98,20.37,129.13,4.21,4.79,9.77,7.35,15.81,7.26,25.91-.4,98.92-11.71,143.66-120.51,5.02-12.22,4.93-25.97-.11-35.99Z" fill="#fff" stroke="#000" stroke-miterlimit="10" stroke-width="20"/>
        <path d="M1082.39,36.18c.9,23.41-9.37,68.84-2.71,107.92,6.66,39.09,30.24,71.84,47.99,97.58,2.28,3.3,2.4,8.49.33,12.94-11.56,24.91-49.13,100.45-72.61,84.33-4.13-2.84-8.93-4.21-12.79-7.65-33.67-29.96-49.07-194.28,24.92-299.52,5.51-7.84,14.5-5.23,14.87,4.39Z" fill="#efbdb3"/>
      </g>
      <g>
        <path d="M1467.34,221.59c15.37-30.59,46.51-103.6,34.46-173.4-5.72-33.18,22.49-50.92,43.28-27.52.61.69,1.23,1.39,1.85,2.1.44.5.88.98,1.33,1.45,8.62,8.79,86.6,110.03,98.81,217.5,5,43.97,14.93,88.98-20.37,129.13-4.21,4.79-9.77,7.35-15.81,7.26-25.91-.4-98.92-11.71-143.66-120.51-5.02-12.22-4.93-25.97.11-35.99Z" fill="#fff" stroke="#000" stroke-miterlimit="10" stroke-width="20"/>
        <path d="M1510.2,27.77c-.9,23.41,9.37,68.84,2.71,107.92-6.66,39.09-30.24,71.84-47.99,97.58-2.28,3.3-2.4,8.49-.33,12.94,11.56,24.91,49.13,100.45,72.61,84.33,4.13-2.84,8.93-4.21,12.79-7.65,33.67-29.96,49.07-194.28-24.92-299.52-5.51-7.84-14.5-5.23-14.87,4.39Z" fill="#efbdb3"/>
      </g>
      <path d="M1503.34,1706.59s-4.81-50.43,57.69-57.43c62.5-7,74.52-112.06,74.52-112.06,0,0-156.24-30.82-156.24-4.2s-6.01,47.62-6.01,47.62l30.05,126.06Z" fill="#584e42"/>
      <path d="M668.81,973.24s67.41-607.77,519.98-747.85c16.31-5.05,33-8.35,49.83-9.91,81.82-7.59,333.5-13.32,482.49,178.76,5.22,6.72,10.64,13.23,16.29,19.46,41.77,46.08,224,262.29,255.88,559.54,17.58,163.94-5.42,284.58-33.61,365.16-29.06,83.08-86.31,148.44-157.7,182.03-76.86,36.16-202.54,75.2-380.91,69.57-8-.25-16.01-.08-23.99.48-84.56,5.87-603.44-14.14-666.18-165.01-3.59-8.62-7.59-16.99-11.18-25.62-28.85-69.33-85.13-201.36-50.9-426.6Z" fill="#fff" stroke="#000" stroke-miterlimit="10" stroke-width="20"/>
      <path d="M743.7,695.98s293.54,40.14,396.65-103.91c0,0,82.17-80.03,12.89-196.87,0,0-41.89-113.61,103.11-186.17,0,0-217.54,14.91-400.53,264.24,0,0-69.41,93.85-112.13,222.71Z" fill="#584e42"/>
      <ellipse cx="1329.67" cy="1214.24" rx="286.05" ry="316.56" fill="#ff9795"/>
      <rect x="336.79" y="1273.51" width="2072.05" height="112.06" fill="#bbd1d8" stroke="#000" stroke-miterlimit="10" stroke-width="2"/>
      <rect x="340.52" y="1344.51" width="2068.32" height="41.06" fill="#808f8b"/>
      <path d="M689.63,864.02s-48.32,139.89,38.38,410.46c51.78,161.59,114.36,164.24,156.37,140.17,32.92-18.87,55.1-56.11,60.62-98.38,6.88-52.65,3.41-140.03-58.59-244.35" fill="#fff" stroke="#000" stroke-miterlimit="10" stroke-width="20"/>
      <path d="M810.46,1350.33c52.45,6.31,170.07-6.41,15.34-297.37,0,0-6.26-51.59,26.81-22.17,33.07,29.42,96.6,246.71,84.02,288.85,0,0-19,78.07-59.14,76.24,0,0-36.68-.73-69.15-28.33-6.59-5.6-5.03-18.08,2.12-17.22Z" fill="#e7e9ef"/>
      <path d="M1968.99,843s48.32,139.89-38.38,410.46c-51.78,161.59-114.36,164.24-156.37,140.17-32.92-18.87-55.1-56.11-60.62-98.38-6.88-52.65-3.41-140.03,58.59-244.35" fill="#fff" stroke="#000" stroke-miterlimit="10" stroke-width="20"/>
      <path d="M1848.16,1329.31c-52.45,6.31-170.07-6.41-15.34-297.37,0,0,6.26-51.59-26.81-22.17-33.07,29.42-96.6,246.71-84.02,288.85,0,0,19,78.07,59.14,76.24,0,0,36.68-.73,69.15-28.33,6.59-5.6,5.03-18.08-2.12-17.22Z" fill="#e7e9ef"/>
      <rect x="1104.34" y="503.49" width="443.68" height="283.12" rx="108.26" ry="108.26" fill="#ff9795" stroke="#000" stroke-miterlimit="10" stroke-width="20"/>
      <ellipse cx="1225.52" cy="622.11" rx="35.74" ry="42.03"/>
      <ellipse cx="1432.59" cy="625.89" rx="35.74" ry="42.03"/>
      <path d="M1600.69,346.17l-132.64,47.74s81.33,2.65,100.69,58.35" fill="none" stroke="#000" stroke-linecap="round" stroke-linejoin="round" stroke-width="20"/>
      <path d="M1074.87,349.95l132.64,42.25s-81.33,2.35-100.69,51.64" fill="none" stroke="#000" stroke-linecap="round" stroke-linejoin="round" stroke-width="20"/>
      <path d="M1137.23,1582.63s-84.76,219.23-142.81,212.58c0,0-37.2-39.15-31.35-1.33l5.85,37.82s78.91,28.61,114.9-15.23c35.99-43.85,33.09-41.3,37.15-53.15,4.06-11.85,46.44-180.7,46.44-180.7h-30.19Z" fill="#e7e9ef"/>
      <path d="M1504.64,1588.23s84.76,219.23,142.81,212.58c0,0,37.2-39.15,31.35-1.33l-5.85,37.82s-78.91,28.61-114.9-15.23c-35.99-43.85-33.09-41.3-37.15-53.15-4.06-11.85-46.44-180.7-46.44-180.7h30.19Z" opacity=".17"/>
      <path d="M862.61,1627.55c-.86-7.21,7.9-9.75,10.02-2.9,11.18,36.1,27.94,74.47,46.9,65.16,28.89-14.18,47.71,109.55,52.9,148.65.67,5.03-3.95,8.72-7.73,6.16-23.39-15.9-84.58-70.72-102.1-217.08Z" fill="#584e42"/>
      <path d="M2306.12,1049.07l-57.06,11.33s77.91,235.57-247.26,59.65l-9.35,93.42s414.89,165.82,313.67-164.4Z" fill="#fff" stroke="#1d1d1d" stroke-miterlimit="10" stroke-width="2"/>
      <path d="M2321.39,1051.12s89.63-65.58-50.3-138.05c-139.93-72.47-42.3-140.69-42.3-140.69,0,0-57.07,12.8-92.96,55.86-35.89,43.05-17.94,158.8,2.78,185.19,19.92,25.36,53.53,64.9,138.55,58.09l44.22-20.39Z" fill="#1d1d1d"/>
      <g>
        <path d="M2367.82,1043.24l40.98,525.39c.88,11.3,7.61,21.17,17.56,25.95,42.4,20.36,160.51,65.82,264.12.76,8.53-5.36,14.05-14.67,15.02-24.94l49.49-527.16" fill="#c5e9f7" stroke="#000" stroke-miterlimit="10" stroke-width="20"/>
        <path d="M2393.93,1256.26l23.02,321.46s153.74,96.65,278.44,0l30.27-325.66" fill="#e7e5e6"/>
        <ellipse cx="2561.4" cy="1043.24" rx="193.59" ry="67.82" fill="#c5e9f7" stroke="#000" stroke-miterlimit="10" stroke-width="20"/>
        <ellipse cx="2559.51" cy="1258.13" rx="175.27" ry="67.59" fill="#fff" stroke="#000" stroke-miterlimit="10" stroke-width="20"/>
        <path d="M2503.91,1277.27s81.13,46.22,169.47,35.72c0,0,18.03-21.01,18.03,79.84,0,0-35.27,191.24-81.77,219.31-3.92,2.36-7.91,3.57-11.97,3.41-52.28-2.1,99.16-16.81,99.16-16.81l32.45-386.59s-1.2,14.71-60.09,32.22c-77.53,23.05-165.26,32.92-165.26,32.92Z" opacity=".07" stroke="#000" stroke-miterlimit="10" stroke-width="20"/>
      </g>
      <g>
        <path d="M10,1040.12l41.17,527.83c.75,9.66,6.42,18.14,14.9,22.31,39.29,19.29,156.06,66.4,260.19,5.83,12.37-7.19,20.61-20.16,21.98-34.75l48.93-521.22" fill="#c5e9f7" stroke="#000" stroke-miterlimit="10" stroke-width="20"/>
        <path d="M36.12,1253.14l23.02,321.46s153.74,96.65,278.44,0l30.27-325.66" fill="#e7e5e6"/>
        <ellipse cx="203.59" cy="1040.12" rx="193.59" ry="67.82" fill="#c5e9f7" stroke="#000" stroke-miterlimit="10" stroke-width="20"/>
        <ellipse cx="201.69" cy="1255.01" rx="175.27" ry="67.59" fill="#fff" stroke="#000" stroke-miterlimit="10" stroke-width="20"/>
        <path d="M146.09,1274.15s81.13,46.22,169.47,35.72c0,0,18.03-21.01,18.03,79.84,0,0-35.27,191.24-81.77,219.31-3.92,2.36-7.91,3.57-11.97,3.41-52.28-2.1,99.16-16.81,99.16-16.81l32.45-386.59s-1.2,14.71-60.09,32.22c-77.53,23.05-165.26,32.92-165.26,32.92Z" opacity=".07" stroke="#000" stroke-miterlimit="10" stroke-width="20"/>
      </g>
    </g>
  </g>
</svg>