<?xml version="1.0" encoding="UTF-8"?>
<svg id="Layer_1" xmlns="http://www.w3.org/2000/svg" version="1.1" viewBox="0 0 3000 3000">
  <!-- Generator: Adobe Illustrator 29.3.1, SVG Export Plug-In . SVG Version: 2.1.0 Build 151)  -->
  <defs>
    <style>
      .st0, .st1 {
        fill: none;
      }

      .st2 {
        fill: #a96c6d;
        stroke-miterlimit: 10;
        stroke-width: 30px;
      }

      .st2, .st3, .st4, .st5, .st6, .st7, .st8, .st1 {
        stroke: #000;
      }

      .st3 {
        fill: #7d3436;
      }

      .st3, .st4 {
        stroke-width: 30px;
      }

      .st3, .st4, .st5, .st6, .st7, .st8 {
        stroke-miterlimit: 10;
      }

      .st9, .st8 {
        fill: #bd0004;
      }

      .st4 {
        fill: #f5f5f5;
      }

      .st5 {
        fill: #af6175;
        stroke-width: 11px;
      }

      .st6 {
        fill: #e01d28;
      }

      .st6, .st8 {
        stroke-width: 20px;
      }

      .st7 {
        fill: #fcfafd;
      }

      .st10 {
        fill: #93a851;
      }

      .st11 {
        fill: #714748;
      }

      .st1 {
        stroke-miterlimit: 10;
        stroke-width: 30px;
      }

      .st12 {
        fill: #afbd4d;
      }
    </style>
  </defs>
  <g id="Layer_1-2">
    <g>
      <path class="st8" d="M1958,2657.9v-569.7c0-8.4-12.4-15.3-27.7-15.3h-20.8c-15.3,0-27.7,6.8-27.7,15.3v642.4c0,8.4,12.4,15.3,27.7,15.3h242.5c15.3,0,27.7-6.9,27.7-15.3v-42.1c0-8.4-12.4-15.3-27.7-15.3h-166.3c-15.3,0-27.7-6.9-27.7-15.3h0Z"/>
      <path class="st8" d="M1753.9,2702.8c-14.5-7.7-26-14.6-28.1-20.2l-217.1-595.4c-2.4-6.5-13.8-10.7-25.6-9.4l-32.1,3.6c-11.8,1.3-19.4,7.7-17,14.1l212.4,582.4c2.7,7.4-7.6,14.4-21.3,14.4h-176.3c-12,.2-21.7,5.5-21.7,12.2v47.4c0,6.6,9.8,12,21.8,12l289.2,1c12,0,21.7-5.4,21.7-12v-42.9c0-2.8-2.2-5.5-5.9-7.1h0Z"/>
      <path class="st6" d="M2422.3,1597c0,433.7-417.3,785.3-932.1,785.3s-932.1-351.6-932.1-785.3,205.1-571.3,507.7-699.4c46.6-19.7,74.2,3.3,95.2-4.2,26.9-9.6,20.9-38.2,49-45.7,88.4-23.5,182.5-36.1,280.1-36.1,514.8,0,932.1,351.6,932.1,785.3Z"/>
      <ellipse class="st4" cx="1157.7" cy="1506.5" rx="308.4" ry="268.6"/>
      <path d="M1171.9,1302.3c102.4-12.6,198.7,52.8,215.1,146,16.4,93.2-53.2,179-155.6,191.6-102.4,12.6-198.7-52.8-215.1-146-16.4-93.2,53.2-179,155.6-191.6Z"/>
      <path class="st9" d="M1545.6,827.3s1330.2,616,163.9,1522.6c0,0,522.2-117.4,637-494.7,0,0,194.4-481.2-208.4-800.8,0,0-325.5-238.7-592.5-227.2h0Z"/>
      <path class="st4" d="M1641.7,1383.5c110.5,115.5,307.6,136.1,440.1,46,132.6-90.1,150.5-256.7,40-372.2-110.5-115.5-307.6-136.1-440.1-46-132.6,90.1-150.5,256.7-40,372.2h0Z"/>
      <path d="M1658.8,1280c70.2,73.3,192.4,88.5,272.9,33.8,80.5-54.7,88.9-158.5,18.8-231.9-70.2-73.3-192.4-88.5-272.9-33.8-80.5,54.7-88.9,158.5-18.8,231.9h0Z"/>
      <path class="st3" d="M767.2,518.8l88.1-118.6c11.8-15.9,36.7-15.7,48.2.4,55.1,77.3,189.6,275.1,236.2,426,3.7,12.1-13.3,19.8-20.6,9.2-69-100.6-226.2-308.3-337.7-294.2-13.1,1.7-21.8-12.6-14.2-22.9h0Z"/>
      <path class="st10" d="M1167.7,121.1s245.8,288.8-103.7,462.9l103.7-462.9Z"/>
      <path class="st12" d="M1063,581.2s-245.8-288.8,103.7-462.9l-103.7,462.9Z"/>
      <path class="st2" d="M1683.1,1588.1c140.8-24.7,283.2,67.4,317.9,205.7,34.8,138.3-51.2,270.4-192,295.1-140.8,24.7-283.2-67.4-317.9-205.7s51.2-270.4,192-295.1Z"/>
      <g>
        <path class="st0" d="M1748.2,1588.2l13,49.2c4.7,17.7-4.7,34.6-20.8,37.6h0c-16.1,3-33.1-9-37.8-26.7l-15.1-52.9,23-6.3c-7.9.8-15.9,1.8-23.8,3.3-1.5.3-3,.7-4.5,1l15.3,58c4.7,17.7-4.7,34.6-20.8,37.6s-33.1-9-37.8-26.7l-14.3-49.9c-1.8.8-3.5,1.8-5.3,2.7l13.2,50.2c4.4,16.8-5.2,32.9-21.3,35.9-16.1,3-32.9-8.2-37.3-25l-7.2-25.1c-63.4,57.5-92.6,147-68.4,238.7,36.4,138,179.7,228.5,320.1,202.3,140.4-26.3,224.8-159.4,188.4-297.4-31-117.8-140-200.9-258.5-206.4h0Z"/>
        <path class="st0" d="M1649.7,1602.2l30.5-8.4c-10.5,2.2-20.7,5-30.5,8.4Z"/>
        <path class="st7" d="M1611.1,1701.2c16.1-3,25.7-19.2,21.3-35.9l-13.2-50.2c-19.4,9.8-37,22-52.6,36.1l7.2,25.1c4.4,16.8,21.2,28,37.3,25h0Z"/>
        <path class="st7" d="M1676.5,1689c16.1-3,25.5-19.9,20.8-37.6l-15.3-58c-.6.1-1.3.3-1.9.4l-30.5,8.4c-8.7,3-17.1,6.4-25.2,10.3l14.3,49.9c4.7,17.7,21.7,29.7,37.8,26.7h0Z"/>
        <path class="st7" d="M1702.5,1648.4c4.7,17.7,21.7,29.7,37.8,26.7h0c16.1-3,25.5-19.9,20.8-37.6l-13-49.2c-12.5-.6-25.2-.3-37.8.9l-23,6.3,15.1,52.9h0Z"/>
      </g>
      <path class="st11" d="M1729.4,1796.5c128.4-22.3,248.3,23.3,267.9,101.8,19.6,78.5-68.7,160.3-197,182.6-128.4,22.3-248.3-23.3-267.9-101.8s68.7-160.3,197-182.6Z"/>
      <path class="st5" d="M1715.5,2084.6s-10.2-56.1-15.4-115.2c-5.4-61.7-5.3-126.5,17.7-134,45-14.6,31.2,35,83.2,99.3,52,64.2,139.7,88.6,139.7,88.6,0,0-72.8,84.7-225.2,61.3h0Z"/>
      <path class="st1" d="M1683.1,1593.2c140.8-24.6,282.8,66.4,317.2,203.4s-52,267.9-192.9,292.6c-140.8,24.6-282.8-66.4-317.2-203.4-34.3-137,52-267.9,192.9-292.6Z"/>
    </g>
  </g>
</svg>